<?xml version="1.0" encoding="UTF-8" standalone="no"?>
<!DOCTYPE svg  PUBLIC '-//W3C//DTD SVG 1.1//EN'  'http://www.w3.org/Graphics/SVG/1.1/DTD/svg11.dtd'>
<svg xmlns="http://www.w3.org/2000/svg">
<defs>
<font id="GothamRounded-Book" horiz-adv-x="500">
<font-face underline-position="-50" font-weight="325" descent="-200" panose-1="0 0 0 0 0 0 0 0 0 0" units-per-em="1000" unicode-range="U+0020-2212" bbox="-48 -165.077 1159 911" x-height="517" underline-thickness="50" font-family="GothamRounded" ascent="800" cap-height="705"/>
<missing-glyph horiz-adv-x="1000"/>
<glyph glyph-name=".notdef" horiz-adv-x="1000"/>
<glyph glyph-name=".null" horiz-adv-x="0"/>
<glyph glyph-name="nonmarkingreturn" horiz-adv-x="1000"/>
<glyph glyph-name="space" horiz-adv-x="300" unicode=" "/>
<glyph glyph-name="exclam" horiz-adv-x="271" unicode="!" d="M88 63q0 19 14 33t34 14t34 -14t13 -33v-20q1 -20 -13 -34t-34 -14t-34 14t-14 34v20zM112 217l-23 454q-1 13 7 23t22 9h35q13 0 21 -9t8 -23l-23 -454q-1 -11 -7 -17t-16 -6q-22 0 -24 23z"/>
<glyph glyph-name="quotedbl" horiz-adv-x="440" unicode='&quot;' d="M67 450l25 215q5 38 40 38h26q23 0 23 -24q0 -1 -5 -23l-63 -209q-8 -23 -24 -23q-22 0 -22 21v5zM262 450l25 215q5 38 40 38h26q23 0 23 -24q0 -1 -5 -23l-63 -209q-8 -23 -24 -23q-22 0 -22 21v5z"/>
<glyph glyph-name="numbersign" horiz-adv-x="700" unicode="#" d="M238 246h187l37 212h-187zM131 37l24 140h-80q-14 0 -24 10t-10 24q0 15 10 25t24 10h92l37 212h-90q-14 0 -24 10t-11 24q1 14 11 24t24 11h102l25 147q2 14 12 22t23 9q16 0 26 -13t8 -29l-24 -136h188l25 147q2 14 12 22t23 9q16 0 26 -13t8 -29l-23 -136h79 q14 0 24 -10t11 -24q-1 -15 -11 -25t-24 -10h-91l-37 -212h89q15 0 25 -10t10 -24t-10 -24t-25 -11h-101l-26 -151q-1 -13 -11 -22t-24 -9q-17 0 -27 13t-7 29l25 140h-188l-26 -151q-2 -13 -12 -22t-23 -9q-17 1 -27 13t-7 29z"/>
<glyph glyph-name="dollar" horiz-adv-x="636" unicode="$" d="M159 520q0 -46 29 -74t107 -49v236q-62 -3 -99 -35t-37 -78zM492 184q0 46 -30 74t-109 49v-241q63 4 101 36t38 82zM292 731q0 13 10 23t22 9q12 1 22 -9t10 -23v-33q90 -10 169 -64q20 -15 20 -33q0 -16 -11 -26t-27 -10q-13 0 -22 7q-66 48 -132 58v-247 q114 -25 165 -71t51 -123q0 -79 -59 -131t-154 -58v-71q0 -13 -10 -23t-22 -9q-12 -1 -22 9t-10 23v73q-116 10 -217 89q-17 12 -17 32q0 15 11 25t26 11q13 0 23 -8q84 -71 177 -82v251q-113 27 -163 72t-50 123q0 77 59 129t151 56v31z"/>
<glyph glyph-name="percent" horiz-adv-x="834" unicode="%" d="M624 48q40 0 66 35t25 86v2q0 51 -27 87t-66 36q-40 0 -66 -35t-25 -86v-2q0 -51 27 -87t66 -36zM212 406q40 0 66 35t25 86v2q0 51 -27 87t-66 36q-40 0 -66 -35t-25 -86v-2q0 -51 27 -87t66 -36zM622 -8q-69 0 -113 52t-44 125v2q0 73 45 126t114 53t113 -52t44 -125 v-2q-1 -75 -45 -127t-114 -52zM149 23q0 10 6 19l476 649q11 14 25 14q12 -1 20 -9t9 -19q0 -10 -6 -19l-476 -649q-11 -14 -25 -14q-12 1 -20 9t-9 19zM210 350q-70 0 -114 52t-44 125v2q0 73 45 126t115 53q69 0 113 -52t44 -125v-2q0 -73 -45 -126t-114 -53z"/>
<glyph glyph-name="ampersand" horiz-adv-x="696" unicode="&amp;" d="M271 57q94 0 176 92l-188 192q-67 -25 -101 -65t-33 -85v-2q0 -57 41 -95t105 -37zM290 415q135 46 135 133v2q0 42 -28 70t-71 27q-46 0 -76 -29t-30 -72v-2q0 -30 15 -58t55 -71zM618 -9q-16 0 -32 14l-91 95q-102 -110 -230 -110q-95 0 -157 54t-63 142v2 q0 136 169 202q-70 82 -70 154v2q0 70 52 118t133 48q73 0 121 -46t49 -112v-2q0 -124 -165 -182l160 -163q41 61 73 133q11 21 32 21q15 -1 25 -11t11 -25q0 -8 -5 -18q-42 -88 -87 -149l97 -99q15 -17 15 -31q-1 -16 -11 -26t-26 -11z"/>
<glyph glyph-name="quotesingle" horiz-adv-x="245" unicode="&apos;" d="M67 450l25 215q5 38 40 38h26q23 0 23 -24q0 -5 -4 -23l-64 -209q-8 -23 -24 -23q-22 0 -22 21v5z"/>
<glyph glyph-name="parenleft" horiz-adv-x="434" unicode="(" d="M349 -137q-14 0 -18 4q-263 155 -263 420t263 420q4 4 18 4q12 0 21 -9t9 -21q0 -17 -15 -27q-218 -143 -218 -367t218 -367q15 -10 15 -27q0 -12 -9 -21t-21 -9z"/>
<glyph glyph-name="parenright" horiz-adv-x="434" unicode=")" d="M85 -137q-12 0 -21 9t-9 21q0 17 15 27q218 143 218 367t-218 367q-15 10 -15 27q0 12 9 21t21 9q14 0 18 -4q263 -155 263 -420t-263 -420q-4 -4 -18 -4z"/>
<glyph glyph-name="asterisk" horiz-adv-x="430" unicode="*" d="M191 420l8 102l-84 -59q-11 -8 -20 -8q-9 -1 -17 7t-8 19q0 17 18 23l97 45l-97 45q-18 9 -18 24q0 10 8 18t17 8t20 -8l84 -59l-8 101q-1 12 6 20t18 9q11 -1 19 -9t5 -19l-8 -102l84 59q11 8 20 8t17 -8t8 -18q0 -16 -18 -24l-97 -45l97 -45q18 -6 18 -23q0 -10 -8 -18 t-17 -8t-20 8l-84 59l8 -102q3 -12 -5 -20t-19 -8t-19 8t-5 20z"/>
<glyph glyph-name="plus" horiz-adv-x="625" unicode="+" d="M275 143v173h-175q-15 0 -26 10t-11 26t11 26t26 10h175v173q0 17 11 27t27 10q15 0 26 -10t11 -27v-173h176q16 0 26 -10t10 -26t-10 -26t-26 -10h-176v-173q0 -17 -11 -27t-26 -10q-16 0 -27 10t-11 27z"/>
<glyph glyph-name="comma" horiz-adv-x="245" unicode="," d="M45 -100q0 13 13 18q56 25 56 77v5q-39 9 -39 48v16q0 20 13 33t33 13q21 0 35 -15t14 -40v-19q0 -84 -36 -120q-16 -16 -36 -26t-32 -10q-21 0 -21 20z"/>
<glyph glyph-name="hyphen" horiz-adv-x="408" unicode="-" d="M100 260q-16 0 -28 12t-12 29q0 16 12 28t28 12h208q16 0 28 -12t12 -28q0 -17 -12 -29t-28 -12h-208z"/>
<glyph glyph-name="period" horiz-adv-x="245" unicode="." d="M75 63q-1 19 13 33t35 14q19 0 33 -14t14 -33v-20q0 -20 -14 -34t-33 -14q-21 0 -35 14t-13 34v20z"/>
<glyph glyph-name="slash" horiz-adv-x="508" unicode="/" d="M-4 -102q0 10 5 17l435 868q10 20 30 20q13 0 22 -9t9 -22q0 -9 -4 -17l-436 -868q-10 -20 -29 -20q-12 0 -22 9t-10 22z"/>
<glyph glyph-name="zero" horiz-adv-x="715" unicode="0" d="M359 60q95 0 153 84t59 204v2q1 118 -59 204t-155 86t-154 -84t-59 -204v-2q0 -118 60 -204t155 -86zM357 -12q-131 0 -213 104t-82 256v2q0 150 82 256t215 106q132 0 213 -104t81 -256v-2q0 -150 -82 -256t-214 -106z"/>
<glyph glyph-name="one" horiz-adv-x="358" unicode="1" d="M179 35v591l-98 -32q-9 -3 -17 -3q-14 0 -24 10t-10 24q0 24 28 34l115 40q29 9 43 9h2q17 0 28 -12t11 -27v-634q1 -17 -11 -29t-28 -11q-16 0 -28 12t-11 28z"/>
<glyph glyph-name="two" horiz-adv-x="599" unicode="2" d="M44 37q0 21 19 37l239 211q82 73 114 121t32 99q0 60 -41 97t-100 37q-53 0 -94 -25t-80 -77q-11 -14 -29 -14q-16 1 -26 11t-10 25q0 12 8 22q47 65 101 97t136 32q93 0 155 -56t62 -142v-2q0 -74 -39 -130t-138 -142l-187 -166h339q15 0 26 -10t11 -26t-11 -26t-26 -10 h-421q-16 0 -28 10t-12 27z"/>
<glyph glyph-name="three" horiz-adv-x="613" unicode="3" d="M311 -12q-150 0 -244 106q-13 13 -13 28q0 16 12 28t27 11q17 0 29 -12q78 -89 190 -89q65 0 109 38t44 98v2q0 64 -54 100t-142 35h-25q-14 0 -24 10t-11 24q0 15 16 31l204 231h-310q-15 0 -26 10t-11 25q0 16 11 26t26 10h382q17 0 27 -10t11 -24q0 -18 -19 -39 l-206 -229q100 -8 166 -58t65 -139v-2q1 -91 -67 -151t-167 -60z"/>
<glyph glyph-name="four" horiz-adv-x="671" unicode="4" d="M138 232h294v361zM432 33v133h-348q-16 0 -28 11t-12 27q0 18 15 38l364 444q19 24 44 24q18 0 30 -12t12 -29v-437h79q14 0 24 -10t10 -24q0 -12 -10 -22t-24 -10h-79v-133q1 -16 -11 -27t-28 -11t-27 11t-11 27z"/>
<glyph glyph-name="five" horiz-adv-x="612" unicode="5" d="M304 -12q-126 0 -228 91q-16 13 -16 33q0 14 11 26t27 11q15 0 27 -10q87 -79 180 -79q74 0 121 44t47 111v2q-1 67 -49 107t-125 40q-49 0 -95 -17t-47 -17q-17 0 -40 15q-17 12 -17 37v6l16 274q2 18 12 28t26 10h336q16 0 26 -10t10 -27q0 -15 -10 -25t-26 -11h-302 l-15 -224q71 31 138 31q105 0 173 -58t69 -156v-2q0 -102 -70 -166t-179 -64z"/>
<glyph glyph-name="six" horiz-adv-x="647" unicode="6" d="M334 58q76 0 122 46t47 114v2q0 66 -48 108t-123 42q-76 0 -126 -46t-49 -107v-2q0 -67 50 -112t127 -45zM333 -12q-113 0 -184 71q-45 45 -67 107t-21 164v2q1 164 79 272t212 108q99 0 182 -62q19 -13 19 -33q0 -16 -11 -27t-27 -11q-12 0 -22 7q-71 54 -145 54 q-94 0 -150 -86t-55 -223q73 107 199 107q102 0 172 -60t70 -155v-2q0 -101 -72 -167t-179 -66z"/>
<glyph glyph-name="seven" horiz-adv-x="596" unicode="7" d="M157 32q0 10 6 24l290 572h-353q-15 0 -26 10t-11 26t11 26t26 10h410q18 0 28 -10t10 -25t-11 -35l-302 -607q-13 -28 -38 -28q-16 1 -28 11t-12 26z"/>
<glyph glyph-name="eight" horiz-adv-x="630" unicode="8" d="M315 59q83 0 133 38t50 93v2q0 58 -53 96t-130 37q-77 1 -130 -37t-53 -96v-2q0 -55 50 -93t133 -38zM315 390q68 0 114 36t46 92v2q0 52 -46 86t-114 35q-69 -1 -115 -35t-45 -86v-2q0 -56 46 -92t114 -36zM315 -10q-113 0 -188 56t-75 142v2q0 60 39 104t105 68 q-120 55 -120 161v2q0 79 70 132t169 53t169 -53t70 -132v-2q0 -106 -120 -161q66 -25 105 -68t39 -103v-2q0 -87 -75 -143t-188 -56z"/>
<glyph glyph-name="nine" horiz-adv-x="647" unicode="9" d="M316 323q78 -1 126 47t48 111v2q0 67 -50 113t-128 46q-76 0 -122 -48t-46 -116v-2q0 -67 48 -110t124 -43zM295 -12q-102 0 -195 70q-18 13 -18 32q0 16 11 27t27 11q12 0 25 -8q73 -60 152 -60q94 0 152 86q56 83 56 212v9q-70 -112 -198 -112q-108 0 -176 61t-68 156 v2q0 102 71 170t181 68q112 0 184 -72q87 -87 87 -271v-2q0 -167 -81 -273t-210 -106z"/>
<glyph glyph-name="colon" horiz-adv-x="255" unicode=":" d="M80 63q0 19 14 33t34 14t34 -14t13 -33v-20q1 -20 -13 -34t-34 -14t-34 14t-14 34v20zM80 475q0 19 14 33t34 14t34 -14t13 -33v-21q1 -20 -13 -34t-34 -13q-20 -1 -34 13t-14 34v21z"/>
<glyph glyph-name="semicolon" horiz-adv-x="255" unicode=";" d="M50 -100q0 13 13 18q56 25 56 77v5q-39 9 -39 48v16q0 20 13 33t33 13q22 0 36 -15t13 -40v-19q0 -84 -36 -120q-15 -16 -35 -26t-33 -10q-21 0 -21 20zM80 475q0 19 14 33t34 14t34 -14t13 -33v-21q1 -20 -13 -34t-34 -13q-20 -1 -34 13t-14 34v21z"/>
<glyph glyph-name="less" horiz-adv-x="625" unicode="&lt;" d="M504 101q-6 0 -19 5l-395 201q-29 15 -29 43v4q0 28 29 43l395 201q10 5 21 5h2q12 1 20 -9q10 -10 10 -25q0 -23 -23 -34l-367 -182l367 -184q23 -11 23 -34q0 -14 -10 -24t-24 -10z"/>
<glyph glyph-name="equal" horiz-adv-x="625" unicode="=" d="M113 432q-15 0 -26 10t-11 27q0 15 11 26t26 11h399q16 0 27 -11t11 -26q0 -17 -11 -27t-27 -10h-399zM113 198q-15 0 -26 10t-11 27q0 15 11 26t26 11h399q16 0 27 -11t11 -26q0 -17 -11 -27t-27 -10h-399z"/>
<glyph glyph-name="greater" horiz-adv-x="625" unicode="&gt;" d="M121 603q5 0 20 -5l394 -201q30 -15 30 -43v-4q0 -28 -30 -43l-394 -201q-12 -5 -21 -5h-2q-12 -1 -21 9q-10 10 -10 25q0 22 23 34l367 182l-367 184q-23 12 -23 34q0 14 10 24t24 10z"/>
<glyph glyph-name="question" horiz-adv-x="537" unicode="?" d="M197 63q0 19 14 33t34 14t34 -14t14 -33v-20q0 -20 -14 -34t-34 -14t-34 14t-14 34v20zM248 193h-4q-10 -1 -18 7t-8 20l-11 112q-1 14 7 24t22 11q81 5 127 41t46 98v2q0 54 -40 92t-106 38q-93 0 -165 -78q-13 -11 -27 -11q-15 0 -25 10t-11 25q0 15 12 27 q90 98 218 98q100 0 162 -56t62 -142v-2q0 -89 -58 -139t-150 -64l-7 -86q-3 -27 -26 -27z"/>
<glyph glyph-name="at" horiz-adv-x="980" unicode="@" d="M450 133q64 1 114 55t50 125q0 55 -34 91t-88 36q-64 0 -114 -53t-50 -129q0 -58 34 -92t88 -33zM499 -162q-190 0 -318 128t-128 308q-1 180 127 309t311 129q181 0 309 -118t127 -278q1 -119 -55 -182t-132 -63q-53 1 -89 23t-51 61q-71 -84 -165 -84q-75 1 -127 51 t-52 131q0 103 72 176t159 73q99 0 146 -83l8 43q6 34 35 34q16 0 26 -12q8 -10 8 -22q0 -4 -1 -8l-36 -202q-7 -39 -7 -61q0 -37 22 -59t63 -22q58 0 99 53t41 153q-1 142 -117 252t-283 110q-171 0 -287 -118t-115 -286q0 -170 116 -286t294 -116q130 0 241 64q4 2 10 2 t10 -5t5 -11q0 -6 -8 -14q-120 -70 -258 -70z"/>
<glyph glyph-name="A" horiz-adv-x="784" unicode="A" d="M229 257h322l-161 358zM51 31q0 11 5 21l284 621q16 35 50 35h4q35 0 49 -35l284 -620q5 -12 5 -20q0 -16 -11 -27t-27 -11q-26 0 -39 29l-73 161h-384l-73 -163q-11 -27 -38 -27q-15 1 -25 11t-11 25z"/>
<glyph glyph-name="B" horiz-adv-x="722" unicode="B" d="M177 71h235q80 -1 126 33t46 92v2q0 58 -48 89t-138 31h-221v-247zM177 388h207q73 0 117 32t44 93v2q-1 53 -41 83t-114 31h-213v-241zM99 40v620q-1 16 11 28t28 12h259q119 0 183 -62q45 -47 45 -112v-2q0 -114 -111 -162q150 -45 150 -169v-2q0 -89 -69 -140 t-185 -51h-272q-16 0 -28 12t-11 28z"/>
<glyph glyph-name="C" horiz-adv-x="738" unicode="C" d="M419 -12q-151 0 -251 104t-100 256v2q0 150 101 256t253 106q80 0 138 -23t112 -68q16 -14 16 -32q0 -15 -12 -27t-28 -12q-12 0 -26 9q-90 80 -201 80q-115 0 -193 -83t-78 -204v-2q0 -122 78 -206t193 -83q115 0 208 85q11 11 25 11q14 1 26 -11t12 -27q0 -17 -13 -28 q-113 -103 -260 -103z"/>
<glyph glyph-name="D" horiz-adv-x="782" unicode="D" d="M178 73h164q130 0 210 78t80 197v2q0 119 -80 198t-210 79h-164v-554zM99 40v620q-1 16 11 28t28 12h204q164 0 268 -100t104 -248v-2q0 -150 -104 -250t-268 -100h-204q-16 0 -28 12t-11 28z"/>
<glyph glyph-name="E" horiz-adv-x="670" unicode="E" d="M138 0q-16 0 -28 12t-11 28v620q-1 16 11 28t28 12h435q15 0 25 -10t11 -26q-1 -16 -11 -26t-25 -10h-395v-239h350q16 0 26 -11t10 -25q0 -15 -10 -25t-26 -11h-350v-245h400q16 0 26 -10t10 -26t-10 -26t-26 -10h-440z"/>
<glyph glyph-name="F" horiz-adv-x="656" unicode="F" d="M99 35v625q-1 16 11 28t28 12h433q15 0 25 -10t11 -26q-1 -15 -11 -26t-25 -11h-393v-250h348q16 -1 26 -11t10 -25t-10 -25t-26 -11h-348v-270q0 -17 -12 -29t-28 -11q-16 0 -28 12t-11 28z"/>
<glyph glyph-name="G" horiz-adv-x="784" unicode="G" d="M424 -12q-160 0 -258 103t-98 257v2q0 148 99 255t252 107q137 0 239 -75q16 -12 16 -32q0 -16 -12 -28t-27 -12q-12 0 -25 10q-84 64 -194 64q-114 0 -190 -84t-76 -203v-2q0 -127 76 -209t201 -82q116 0 202 70v174h-188q-15 1 -25 11t-10 24q0 16 10 26t25 10h225 q16 0 28 -12t11 -28v-213q0 -30 -27 -48q-116 -85 -254 -85z"/>
<glyph glyph-name="H" horiz-adv-x="760" unicode="H" d="M99 35v630q-1 16 11 28t28 12q16 1 28 -11t12 -29v-276h404v276q0 17 12 29t28 11q16 0 28 -12t11 -28v-630q1 -16 -11 -28t-28 -12q-16 -1 -28 11t-12 29v280h-404v-280q0 -17 -12 -29t-28 -11q-16 0 -28 12t-11 28z"/>
<glyph glyph-name="I" horiz-adv-x="291" unicode="I" d="M106 35v630q0 16 12 28t27 12q17 1 29 -11t11 -29v-630q1 -17 -11 -29t-29 -11q-15 0 -27 12t-12 28z"/>
<glyph glyph-name="J" horiz-adv-x="553" unicode="J" d="M247 -10q-124 0 -198 100q-11 11 -11 27q0 15 12 27t27 12q16 0 28 -14q29 -41 63 -60t81 -19q61 -1 99 43t38 125v434q0 17 12 29t28 11q16 1 28 -11t11 -29v-433q0 -120 -64 -184q-60 -58 -154 -58z"/>
<glyph glyph-name="K" horiz-adv-x="714" unicode="K" d="M99 35v630q-1 16 11 28t28 12q16 1 28 -11t12 -29v-383l399 409q16 14 31 14q14 0 26 -12t12 -27t-13 -28l-248 -246l266 -328q11 -14 11 -29q0 -16 -12 -28t-28 -12q-19 0 -32 18l-261 325l-151 -151v-152q0 -17 -12 -29t-28 -11q-16 0 -28 12t-11 28z"/>
<glyph glyph-name="L" horiz-adv-x="619" unicode="L" d="M99 40v625q-1 16 11 28t28 12q16 1 28 -11t12 -29v-592h363q15 0 25 -11t11 -26q-1 -16 -11 -26t-25 -10h-403q-16 0 -28 12t-11 28z"/>
<glyph glyph-name="M" horiz-adv-x="868" unicode="M" d="M99 34v630q-1 16 11 28t28 11h9q23 0 37 -21l250 -376l250 376q13 21 37 21h9q16 1 28 -11t11 -28v-629q1 -16 -11 -28t-28 -12t-28 12t-12 28v522l-224 -329q-14 -20 -33 -20q-20 0 -34 20l-223 328v-522q0 -16 -11 -28t-28 -11q-16 -1 -27 11t-11 28z"/>
<glyph glyph-name="N" horiz-adv-x="790" unicode="N" d="M99 34v630q-1 16 11 28t28 11h11q22 0 40 -23l425 -542v528q0 16 12 28t27 11q16 1 27 -11t11 -28v-632q0 -16 -10 -26t-26 -11h-4q-20 0 -41 24l-434 555v-542q0 -16 -12 -28t-27 -11q-16 -1 -27 11t-11 28z"/>
<glyph glyph-name="O" horiz-adv-x="850" unicode="O" d="M426 61q118 0 196 83t78 204v2q0 121 -78 205t-198 84q-118 0 -196 -83t-78 -204v-2q0 -121 78 -205t198 -84zM424 -12q-156 0 -256 106t-100 254v2q0 150 101 256t257 106t256 -106t100 -254v-2q0 -150 -101 -256t-257 -106z"/>
<glyph glyph-name="P" horiz-adv-x="668" unicode="P" d="M178 319h173q87 1 139 43t53 111v2q-1 73 -51 113t-137 39h-177v-308zM99 35v625q-1 16 11 28t28 12h223q119 0 191 -60t71 -162v-2q-1 -109 -79 -169t-196 -60h-170v-212q0 -17 -12 -29t-28 -11q-16 0 -28 12t-11 28z"/>
<glyph glyph-name="Q" horiz-adv-x="850" unicode="Q" d="M482 204q-17 14 -17 32q-1 16 11 28t28 12q15 0 30 -13l107 -98q59 78 59 183v2q0 121 -78 205t-198 84q-118 0 -196 -83t-78 -204v-2q0 -121 78 -205t198 -84q93 0 162 52zM424 -12q-156 0 -256 106t-100 254v2q0 150 101 256t257 106t256 -106t100 -254v-2 q0 -133 -83 -235l66 -55q16 -14 16 -33q1 -15 -11 -27t-28 -12q-15 0 -30 13l-68 61q-95 -74 -220 -74z"/>
<glyph glyph-name="R" horiz-adv-x="723" unicode="R" d="M178 343h215q80 0 130 39t50 105v2q1 65 -47 101t-132 37h-216v-284zM99 35v625q-1 16 11 28t28 12h262q129 0 199 -70q54 -54 54 -138v-2q-1 -83 -51 -135t-136 -68l174 -224q13 -15 13 -29q-1 -16 -13 -28t-27 -11q-21 0 -37 21l-197 256h-201v-237q0 -17 -12 -29 t-28 -11q-16 0 -28 12t-11 28z"/>
<glyph glyph-name="S" horiz-adv-x="640" unicode="S" d="M339 -10q-147 0 -265 94q-15 10 -15 30q0 16 11 28t27 11q15 0 24 -9q98 -83 221 -83q70 -1 113 33t43 86v2q0 51 -38 81t-144 52q-124 27 -180 73t-55 129v2q0 83 65 137t165 54q127 0 223 -69q17 -13 17 -32q0 -16 -11 -27t-27 -11q-13 0 -23 7q-84 61 -181 61 q-67 -1 -108 -33t-41 -80v-2q0 -52 40 -82t150 -54q120 -26 174 -72t54 -126v-2q0 -90 -67 -144t-172 -54z"/>
<glyph glyph-name="T" horiz-adv-x="648" unicode="T" d="M284 35v592h-203q-15 1 -26 11t-11 25t11 26t26 11h486q15 0 26 -11t11 -26t-11 -25t-26 -11h-203v-592q0 -17 -12 -29t-28 -11q-16 -1 -28 11t-12 29z"/>
<glyph glyph-name="U" horiz-adv-x="759" unicode="U" d="M379 -11q-133 -1 -212 79t-79 225v372q0 16 12 28t27 12q17 1 29 -11t11 -29v-367q0 -112 57 -174t157 -62q99 0 155 59t56 172v372q0 17 12 29t28 11q16 0 28 -12t11 -28v-366q0 -150 -79 -230t-213 -80z"/>
<glyph glyph-name="V" horiz-adv-x="744" unicode="V" d="M370 -8q-33 0 -46 33l-270 623q-4 8 -4 18q0 15 12 27t28 12q29 0 41 -30l242 -580l243 582q14 28 39 28q15 1 27 -11t12 -27q0 -9 -3 -16l-271 -626q-15 -33 -46 -33h-4z"/>
<glyph glyph-name="W" horiz-adv-x="1101" unicode="W" d="M281 25l-224 622q-4 12 -4 18q1 16 13 28t28 12q30 0 41 -33l193 -556l183 558q10 31 39 31h5q29 0 39 -31l183 -558l194 558q10 31 38 31q16 0 28 -12t12 -27q0 -4 -5 -19l-224 -622q-12 -34 -41 -34h-6q-29 0 -41 34l-182 538l-181 -538q-12 -34 -41 -34h-6 q-30 0 -41 34z"/>
<glyph glyph-name="X" horiz-adv-x="719" unicode="X" d="M66 32q0 15 11 28l234 297l-222 280q-13 17 -13 30q0 15 12 27t27 11q18 0 35 -20l211 -274l208 271q19 23 38 23q15 -1 25 -11t11 -26q0 -15 -11 -28l-223 -282l231 -295q13 -15 13 -29q1 -16 -11 -28t-28 -11q-18 0 -35 20l-221 287l-218 -284q-19 -23 -39 -23 q-15 0 -25 11t-10 26z"/>
<glyph glyph-name="Y" horiz-adv-x="708" unicode="Y" d="M314 35v240l-260 364q-9 14 -9 27q0 16 12 28t29 11q21 0 38 -24l231 -333l233 333q17 24 37 24q15 1 27 -11t12 -28q0 -11 -11 -29l-259 -360v-242q0 -17 -12 -29t-28 -11q-16 -1 -28 11t-12 29z"/>
<glyph glyph-name="Z" horiz-adv-x="693" unicode="Z" d="M104 0q-15 0 -26 10t-11 24v2q0 18 14 35l439 558h-406q-16 1 -26 11t-10 24q0 16 10 26t26 10h477q14 0 25 -10t11 -24v-2q0 -18 -14 -35l-439 -558h422q16 -1 26 -11t10 -24q0 -16 -10 -26t-26 -10h-492z"/>
<glyph glyph-name="bracketleft" horiz-adv-x="439" unicode="[" d="M94 -91v752q0 15 12 27t27 12h222q12 0 21 -9t9 -21t-9 -21t-21 -9h-188v-710h188q12 0 21 -9t9 -21t-9 -21t-21 -9h-222q-15 0 -27 12t-12 27z"/>
<glyph glyph-name="backslash" horiz-adv-x="508" unicode="\" d="M512 -102q0 -13 -10 -22t-22 -9q-19 0 -29 20l-436 868q-4 8 -4 17q0 13 9 22t22 9q20 0 30 -20l436 -868q4 -8 4 -17z"/>
<glyph glyph-name="bracketright" horiz-adv-x="439" unicode="]" d="M346 661v-752q0 -15 -12 -27t-27 -12h-222q-13 0 -22 9t-9 21t9 21t22 9h188v710h-188q-13 0 -22 9t-9 21t9 21t22 9h222q15 0 27 -12t12 -27z"/>
<glyph glyph-name="asciicircum" d="M249 647l-101 -133q-20 -25 -50 -25q-8 1 -14 5t-5 9q0 9 7 19l119 159q20 25 41 25h8q21 0 41 -25l118 -159q8 -9 8 -19q0 -14 -20 -14q-31 0 -51 25z" unicode="^"/>
<glyph glyph-name="underscore" horiz-adv-x="600" unicode="_" d="M-2 -160q-12 0 -22 10t-10 22q0 13 10 22t22 9h604q12 0 22 -9t10 -22q0 -12 -10 -22t-22 -10h-604z"/>
<glyph glyph-name="grave" d="M289 591q-28 0 -47 19l-75 71q-14 14 -14 23q0 10 18 20t36 10q21 0 36 -23l60 -91q5 -7 5 -15q0 -14 -19 -14z" unicode="`"/>
<glyph glyph-name="a" horiz-adv-x="579" unicode="a" d="M255 50q73 0 123 40t50 100v50q-76 22 -152 22q-72 0 -112 -29t-39 -78v-2q-1 -47 37 -75t93 -28zM240 -11q-78 0 -136 43t-57 118v2q0 80 60 124t161 43q81 0 159 -22v18q0 69 -40 105t-114 36q-69 0 -134 -29q-7 -3 -14 -3q-14 0 -24 10t-10 23q0 24 21 32 q81 35 169 35q110 0 167 -57q53 -53 53 -151v-283q-1 -16 -11 -27t-26 -11q-16 1 -26 11t-11 25v47q-68 -89 -187 -89z"/>
<glyph glyph-name="b" horiz-adv-x="664" unicode="b" d="M347 58q78 0 130 54t52 145v2q0 89 -53 145t-129 55q-75 -1 -131 -57t-56 -142v-2q0 -88 56 -144t131 -56zM86 34v662q0 16 11 28t27 11q16 1 28 -11t11 -28v-283q78 115 198 115q99 0 173 -73t74 -195v-2q0 -121 -74 -195t-173 -74q-122 0 -198 110v-65q0 -16 -11 -28 t-27 -11q-15 -1 -27 11t-12 28z"/>
<glyph glyph-name="c" horiz-adv-x="571" unicode="c" d="M319 -12q-113 0 -189 79t-76 189v2q0 110 76 190t189 80q108 0 190 -75q12 -10 12 -27q0 -16 -11 -26t-26 -11q-14 0 -25 9q-67 62 -141 62q-78 0 -132 -58t-53 -142v-2q1 -84 55 -142t135 -59q77 0 144 63q10 10 22 10q15 0 25 -10t10 -25q0 -14 -10 -24 q-83 -83 -195 -83z"/>
<glyph glyph-name="d" horiz-adv-x="664" unicode="d" d="M317 459q-78 0 -130 -54t-52 -145v-2q-1 -88 53 -144t129 -56t131 56t56 144v2q0 86 -56 142t-131 57zM578 696v-662q0 -16 -11 -28t-27 -11q-16 -1 -28 11t-11 28v70q-78 -115 -198 -115q-99 0 -173 73t-74 195v2q0 121 74 195t173 74q122 0 198 -110v278q0 17 11 28 t27 11q17 1 28 -11t11 -28z"/>
<glyph glyph-name="e" horiz-adv-x="592" unicode="e" d="M507 66q-81 -78 -195 -78q-110 0 -184 76t-74 193v2q0 113 71 191t177 78q110 0 175 -77t65 -185q0 -16 -10 -26t-26 -10h-374q8 -82 60 -128t122 -47q84 0 149 60q11 9 22 9q14 0 24 -10t10 -23q0 -15 -12 -25zM132 287h333q-6 76 -49 126t-116 50q-68 0 -114 -50 t-54 -126z"/>
<glyph glyph-name="f" horiz-adv-x="367" unicode="f" d="M115 34v415h-42q-13 0 -23 10t-10 24q0 13 10 23t23 10h42v45q0 88 45 133q40 40 111 40q35 0 61 -6q28 -6 28 -33q0 -15 -11 -25t-26 -8q-32 5 -42 5q-90 0 -90 -110v-42h134q14 1 24 -9t10 -24t-10 -24t-24 -9h-133v-415q0 -16 -11 -28t-27 -11q-16 -1 -28 11t-11 28z "/>
<glyph glyph-name="g" horiz-adv-x="664" unicode="g" d="M314 108q76 0 133 50t57 125v2q0 77 -56 126t-134 49q-75 0 -127 -48t-52 -126v-2q1 -76 53 -126t126 -50zM315 -162q-117 0 -216 61q-20 10 -20 32q0 13 11 23t24 11q9 0 17 -5q84 -56 183 -56q88 0 138 48t50 136v61q-82 -109 -203 -109q-99 0 -171 68t-72 174v2 q0 108 73 176t170 68q124 0 202 -104v59q0 15 11 27t27 12q15 0 27 -12t12 -27v-393q0 -117 -66 -183q-69 -69 -197 -69z"/>
<glyph glyph-name="h" horiz-adv-x="616" unicode="h" d="M86 34v662q0 16 11 28t27 11q16 1 28 -11t11 -28v-269q61 101 177 101q92 0 145 -56t53 -151v-287q0 -16 -11 -28t-27 -11q-16 -1 -28 11t-11 28v268q1 72 -37 114t-106 42q-67 0 -111 -45t-44 -117v-262q0 -17 -11 -28t-27 -11q-17 -1 -28 11t-11 28z"/>
<glyph glyph-name="i" horiz-adv-x="263" unicode="i" d="M93 34v449q0 15 11 27t27 12q17 0 28 -11t11 -28v-449q0 -17 -11 -28t-27 -11q-16 -1 -28 11t-11 28zM86 666v13q0 17 13 29t32 12q20 0 33 -12t13 -29v-13q0 -18 -13 -30t-33 -11q-19 -1 -32 11t-13 30z"/>
<glyph glyph-name="j" horiz-adv-x="263" unicode="j" d="M47 -163q-13 0 -18 1q-39 2 -39 33q0 13 10 23t22 9q3 -1 9 -1h8q54 0 54 66v515q0 15 11 27t27 12q17 0 28 -11t11 -28v-513q0 -66 -32 -100t-91 -33zM86 666v13q0 17 13 29t32 12q20 0 33 -12t13 -29v-13q0 -18 -13 -30t-33 -11q-19 -1 -32 11t-13 30z"/>
<glyph glyph-name="k" horiz-adv-x="568" unicode="k" d="M86 34v662q0 16 11 28t27 11q16 1 28 -11t11 -28v-474l280 285q13 15 30 15q15 0 25 -10t10 -26q0 -15 -15 -30l-169 -166l185 -233q10 -13 10 -26q-1 -16 -11 -26t-26 -10q-19 0 -33 18l-179 226l-107 -106v-99q0 -17 -11 -28t-27 -11q-17 -1 -28 11t-11 28z"/>
<glyph glyph-name="l" horiz-adv-x="263" unicode="l" d="M93 34v662q0 16 11 28t27 11q15 1 27 -11t12 -28v-662q0 -17 -11 -28t-27 -11q-16 -1 -28 11t-11 28z"/>
<glyph glyph-name="m" horiz-adv-x="951" unicode="m" d="M86 34v449q0 15 11 27t27 12t28 -11t11 -28v-53q65 98 167 98q116 0 166 -103q67 103 182 103q88 0 140 -56t52 -152v-286q0 -16 -11 -28t-27 -11q-16 -1 -28 11t-11 28v268q1 76 -35 116t-99 40q-61 0 -101 -43t-41 -117v-264q1 -16 -11 -28t-28 -11q-16 -1 -27 11 t-11 28v270q0 72 -36 113t-97 41q-62 0 -103 -46t-41 -117v-261q0 -17 -11 -28t-27 -11q-17 -1 -28 11t-11 28z"/>
<glyph glyph-name="n" horiz-adv-x="616" unicode="n" d="M86 34v449q0 15 11 27t27 12t28 -11t11 -28v-56q61 101 177 101q92 0 145 -56t53 -151v-287q0 -16 -11 -28t-27 -11q-16 -1 -28 11t-11 28v268q1 72 -37 114t-106 42q-67 0 -111 -45t-44 -117v-262q0 -17 -11 -28t-27 -11q-17 -1 -28 11t-11 28z"/>
<glyph glyph-name="o" horiz-adv-x="646" unicode="o" d="M324 57q82 0 136 58t54 141v2q0 84 -56 143t-136 59q-82 0 -136 -58t-53 -142v-2q0 -84 55 -142t136 -59zM322 -12q-116 0 -192 78t-76 190v2q0 110 78 190t192 80q115 0 192 -78t77 -190v-2q0 -110 -78 -190t-193 -80z"/>
<glyph glyph-name="p" horiz-adv-x="664" unicode="p" d="M347 58q78 0 130 54t52 145v2q0 89 -53 145t-129 55q-75 -1 -131 -57t-56 -142v-2q0 -88 56 -144t131 -56zM86 -126v609q0 15 11 27t27 12t28 -11t11 -28v-70q78 115 198 115q99 0 173 -73t74 -195v-2q0 -121 -74 -195t-173 -74q-122 0 -198 110v-225q0 -17 -11 -28 t-27 -11q-17 -1 -28 11t-11 28z"/>
<glyph glyph-name="q" horiz-adv-x="664" unicode="q" d="M317 459q-78 0 -130 -54t-52 -145v-2q-1 -88 53 -144t129 -56t131 56t56 144v2q0 86 -56 142t-131 57zM578 483v-609q0 -16 -11 -28t-27 -11q-16 -1 -28 11t-11 28v230q-78 -115 -198 -115q-99 0 -173 73t-74 195v2q0 121 74 195t173 74q122 0 198 -110v65q0 15 11 27 t27 12q15 0 27 -12t12 -27z"/>
<glyph glyph-name="r" horiz-adv-x="405" unicode="r" d="M86 34v449q0 15 11 27t27 12t28 -11t11 -28v-97q28 62 78 100t100 38q17 0 27 -11t11 -28t-9 -27t-25 -12q-80 -10 -131 -70t-51 -166v-176q0 -16 -11 -28t-27 -11q-17 -1 -28 11t-11 28z"/>
<glyph glyph-name="s" horiz-adv-x="498" unicode="s" d="M257 -10q-108 0 -199 65q-14 10 -14 28q0 13 10 23t24 10q12 0 19 -6q81 -55 164 -55q47 1 77 23t30 59v2q0 35 -32 54t-97 37q-39 11 -62 20q-23 10 -52 26t-43 41t-14 59v2q0 66 50 107t126 41q84 0 165 -44q19 -11 19 -32q0 -14 -10 -24t-24 -9q-9 0 -17 4 q-70 40 -135 40q-44 0 -72 -21t-28 -54v-2q0 -14 8 -26t18 -20t32 -17t34 -13q13 -4 41 -13q29 -9 49 -16t44 -19t38 -28q14 -14 25 -36q10 -22 10 -49v-2q0 -71 -52 -113t-132 -42z"/>
<glyph glyph-name="t" horiz-adv-x="404" unicode="t" d="M259 -9q-67 -1 -107 35t-39 111v312h-42q-13 1 -23 11t-11 23q0 14 10 24t24 10h42v122q0 15 11 27t27 12q15 0 27 -12t12 -27v-122h134q14 0 24 -10t11 -24q-1 -14 -11 -24t-24 -10h-134v-302q0 -86 87 -86q16 0 31 3l16 4q14 0 24 -10t9 -23q0 -22 -22 -30 q-34 -14 -76 -14z"/>
<glyph glyph-name="u" horiz-adv-x="616" unicode="u" d="M529 483v-449q0 -16 -11 -28t-27 -11q-16 -1 -27 11t-11 28v56q-63 -101 -177 -101q-92 1 -145 57t-53 150v287q0 17 11 28t27 11t28 -12t11 -27v-268q-1 -73 37 -115t106 -41q67 0 111 45t44 117v262q0 17 11 28t27 11t27 -12t11 -27z"/>
<glyph glyph-name="v" horiz-adv-x="584" unicode="v" d="M337 25q-15 -33 -43 -33h-4q-29 0 -44 33l-194 438q-5 17 -5 21q-1 14 11 26t28 12q28 0 39 -30l167 -404l170 406q9 28 36 28q16 0 27 -11t11 -27q0 -9 -4 -19z"/>
<glyph glyph-name="w" horiz-adv-x="858" unicode="w" d="M255 -8q-31 0 -43 35l-157 437q-5 15 -5 21q0 15 11 26t28 11q29 0 39 -32l130 -388l131 389q10 31 38 31h4q30 0 40 -31l130 -389l132 390q9 30 37 30q16 0 27 -10t11 -26q0 -6 -5 -21l-158 -438q-12 -35 -42 -35h-3q-31 0 -42 35l-129 377l-130 -377q-11 -35 -42 -35 h-2z"/>
<glyph glyph-name="x" horiz-adv-x="571" unicode="x" d="M60 30q0 15 10 25l169 208l-159 195q-12 14 -12 28q0 16 10 26t26 10q19 0 34 -18l149 -189l148 188q16 19 33 19q15 0 25 -10t10 -25q0 -13 -10 -25l-161 -197l168 -206q11 -14 11 -28q-1 -16 -11 -26t-25 -10q-19 0 -34 18l-157 199l-156 -198q-16 -19 -33 -19 q-15 1 -25 11t-10 24z"/>
<glyph glyph-name="y" horiz-adv-x="587" unicode="y" d="M161 -163q-42 0 -85 15q-24 10 -24 33q0 13 10 23t23 10q7 0 19 -4q27 -9 56 -9q34 -1 58 21t46 71l4 8l-216 458q-5 12 -5 21q-1 16 11 27t28 11q27 0 39 -30l180 -406l160 407q11 29 37 29q16 0 27 -11t11 -27q0 -7 -4 -19l-202 -482q-34 -79 -74 -113t-99 -33z"/>
<glyph glyph-name="z" horiz-adv-x="556" unicode="z" d="M93 0q-15 0 -26 9t-11 22v2q0 18 16 35l327 384h-302q-13 0 -23 10t-10 22q0 14 10 24t23 9h369q16 0 26 -9t11 -22v-2q0 -18 -16 -35l-327 -384h315q13 1 23 -9t10 -23t-10 -23t-23 -10h-382z"/>
<glyph glyph-name="braceleft" horiz-adv-x="483" unicode="{" d="M398 -137q-116 24 -158 70t-41 128q1 7 1 37v39q0 59 -25 89t-89 31q-35 2 -35 30t35 30q64 1 89 31t25 89v39t-1 37q-1 82 41 128t158 70q4 1 8 1q9 0 16 -6q10 -8 10 -20q0 -19 -18 -26q-90 -24 -116 -56t-26 -101v-37t1 -38q-1 -60 -27 -92t-77 -49q53 -17 79 -49 t25 -92q-1 -11 -1 -38v-37q0 -69 26 -101t116 -56q18 -7 18 -26q0 -12 -10 -20q-7 -5 -16 -6q-4 0 -8 1z"/>
<glyph glyph-name="bar" horiz-adv-x="303" unicode="|" d="M119 -100v870q-1 14 9 24t24 9q12 0 22 -10t10 -23v-870q0 -13 -10 -23t-22 -10q-14 -1 -24 9t-9 24z"/>
<glyph glyph-name="braceright" horiz-adv-x="483" unicode="}" d="M85 711q115 -24 157 -70t42 -128v-37t-1 -39q0 -61 25 -90t89 -30q34 -2 34 -30t-34 -30q-64 -1 -89 -30t-25 -90q1 -9 1 -39v-37q0 -82 -42 -128t-157 -70q-4 -1 -8 -1q-9 0 -16 6q-10 8 -10 20q0 19 18 26q90 24 116 56t26 101q-1 10 -1 37v38q0 60 26 92t78 49 q-52 17 -78 49t-26 92v38t1 37q0 69 -26 101t-116 56q-18 7 -18 26q0 12 10 20q7 5 16 6q4 0 8 -1z"/>
<glyph glyph-name="asciitilde" horiz-adv-x="474" unicode="~" d="M126 251q-8 -16 -24 -16q-10 1 -18 7t-7 16q0 10 3 16q16 44 36 63t52 19q22 0 70 -20t64 -21q28 0 45 36q10 16 24 16q11 -1 18 -7t7 -16q0 -8 -2 -16q-28 -82 -88 -82q-24 0 -71 20t-63 21q-29 0 -46 -36z"/>
<glyph glyph-name="uni00A0" horiz-adv-x="300" unicode=" "/>
<glyph glyph-name="exclamdown" horiz-adv-x="271" unicode="¡" d="M183 637q1 -19 -13 -33t-34 -14t-34 14t-14 33v21q0 20 14 34t34 13q20 1 34 -13t13 -34v-21zM159 483l23 -454q0 -14 -8 -23t-21 -9h-35q-14 -1 -22 9t-7 23l23 454q2 23 24 23q10 0 16 -6t7 -17z"/>
<glyph glyph-name="cent" horiz-adv-x="581" unicode="¢" d="M136 355q0 -63 31 -113t83 -73l74 387h-3q-77 0 -131 -58t-54 -141v-2zM219 29l14 71q-79 28 -127 97t-48 156v2q0 111 77 191t188 79h13l11 60q6 26 32 26q15 0 25 -12t5 -28l-11 -56q59 -16 116 -66q13 -13 13 -28q-1 -17 -11 -27t-25 -10t-25 10q-45 40 -85 53 l-76 -392q7 -1 21 -1q79 0 145 63q10 10 24 10q13 0 23 -10t10 -24q0 -15 -11 -24q-82 -84 -195 -84q-18 0 -27 1l-14 -71q-6 -26 -31 -26q-15 0 -25 12t-6 28z"/>
<glyph glyph-name="sterling" horiz-adv-x="644" unicode="£" d="M63 25q0 19 20 25l68 17v228h-53q-14 0 -24 10t-11 24q1 15 11 25t24 10h53v108q0 115 63 178q60 60 158 60q120 0 197 -88q12 -14 12 -29q0 -16 -11 -27t-28 -11q-16 0 -29 13q-31 34 -63 52t-79 17q-59 0 -98 -37q-43 -45 -43 -128v-108h249q15 0 25 -10t10 -25 q0 -14 -10 -24t-25 -10h-249v-225h324q14 0 25 -10t11 -25t-10 -25t-26 -10h-465q-11 0 -19 7t-7 18z"/>
<glyph glyph-name="yen" horiz-adv-x="686" unicode="¥" d="M381 266v-88h179q12 0 22 -9t9 -22q1 -13 -9 -22t-22 -9h-179v-82q0 -16 -11 -28t-27 -11q-16 -1 -27 11t-11 28v82h-179q-12 0 -22 9t-9 22q-1 13 9 22t22 9h179v88h-179q-12 0 -22 9t-9 22q-1 13 9 22t22 9h154l-219 311q-9 15 -9 28q0 15 12 27t27 11q23 0 37 -24 l216 -322l217 323q16 23 37 23q15 -1 26 -11t11 -26q0 -11 -10 -29l-221 -311h156q12 0 22 -9t9 -22q1 -13 -9 -22t-22 -9h-179z"/>
<glyph glyph-name="section" horiz-adv-x="632" unicode="§" d="M387 263q49 1 79 21t30 48v2q0 26 -32 47t-110 40q-65 16 -109 16q-49 -1 -79 -21t-30 -48v-2q0 -26 32 -47t110 -40q64 -16 109 -16zM328 -10q-122 0 -212 78q-12 10 -12 27q0 15 10 25t25 10q13 0 25 -10q72 -64 166 -64q50 0 76 18t27 48v2q-1 28 -37 50t-126 42 q-114 27 -161 59t-47 83v2q0 44 36 74t96 40q-74 38 -74 101v2q0 61 50 97t134 36q122 0 212 -78q12 -10 12 -27q0 -15 -10 -25t-25 -10q-13 0 -25 10q-72 64 -166 64q-50 0 -76 -18t-27 -48v-2q-1 -28 35 -49t128 -43q116 -26 162 -58t46 -84v-2q0 -44 -36 -74t-96 -40 q74 -36 74 -101v-2q0 -61 -50 -97t-134 -36z"/>
<glyph glyph-name="dieresis" d="M161 695q19 0 33 -13t14 -32v-15q0 -19 -14 -32t-33 -13t-33 13t-14 32v15q0 19 14 32t33 13zM339 695q19 0 33 -13t14 -32v-15q0 -19 -14 -32t-33 -13t-33 13t-14 32v15q0 19 14 32t33 13z" unicode="¨"/>
<glyph glyph-name="copyright" horiz-adv-x="830" unicode="©" d="M419 163q-79 0 -133 56t-53 135v2q0 79 54 135t134 56q73 0 129 -47q12 -10 12 -23q0 -11 -8 -19t-20 -8q-7 0 -19 8q-46 39 -95 39q-56 0 -94 -41t-37 -99v-2q1 -57 39 -99t93 -42q53 0 100 41q8 6 17 6q10 1 18 -7t8 -18q0 -12 -9 -19q-62 -54 -136 -54zM414 19 q140 0 235 97t95 234v2q0 137 -94 233t-234 96t-235 -97t-95 -234v-2q0 -137 94 -233t234 -96zM414 -12q-151 0 -256 106t-105 254v2q0 150 106 256t257 106t256 -106t105 -254v-2q0 -150 -106 -256t-257 -106z"/>
<glyph glyph-name="ordfeminine" horiz-adv-x="390" unicode="ª" d="M77 289q-9 1 -16 7t-7 16t7 17t16 7h222q9 0 16 -7t7 -17t-7 -16t-16 -7h-222zM177 450q35 0 61 20t26 50v24q-37 11 -76 11q-35 -1 -55 -15t-20 -38v-2q1 -22 19 -36t45 -14zM168 408q-43 0 -75 24t-32 66v2q0 44 34 68t89 25q40 0 80 -11v5q0 35 -20 53t-58 18 q-29 0 -68 -15q-7 -3 -13 -3q-9 0 -15 6t-7 16q0 14 15 21q45 20 93 20q59 0 93 -32q29 -29 29 -84v-154q1 -10 -7 -17t-18 -7q-10 1 -17 7t-7 16v20q-36 -44 -96 -44z"/>
<glyph glyph-name="guillemotleft" horiz-adv-x="550" unicode="«" d="M227 42q-16 0 -28 16l-133 173q-12 15 -12 28q0 12 12 27l132 172q11 16 29 16q13 0 23 -10t10 -22q0 -11 -9 -24l-118 -158l119 -162q8 -11 8 -23q0 -13 -10 -23t-23 -10zM450 42q-17 0 -28 16l-134 173q-12 15 -12 28q0 12 12 27l133 172q11 16 29 16q14 0 23 -9t9 -23 q0 -11 -9 -24l-118 -158l119 -162q8 -11 8 -23q0 -13 -10 -23t-22 -10z"/>
<glyph glyph-name="registered" horiz-adv-x="403" unicode="®" d="M168 539h43q36 0 36 29t-36 29h-43v-58zM134 464v146q0 7 5 12t12 5h63q30 -1 49 -15t19 -41q0 -40 -39 -55l34 -40q5 -6 5 -13t-4 -12t-12 -5q-9 0 -16 9l-46 56h-36v-47q0 -6 -5 -12t-12 -6q-17 0 -17 18zM202 379q66 0 110 46t44 110v1q0 64 -44 110t-110 45 q-66 0 -110 -46t-44 -110v-1q0 -64 44 -110t110 -45zM202 360q-74 0 -124 51t-50 123v1q0 71 51 123t123 52q74 0 124 -51t50 -123v-1q0 -71 -51 -123t-123 -52z"/>
<glyph glyph-name="macron" d="M382 615h-264q-12 -1 -22 9t-10 23t10 23t22 9h264q12 1 22 -9t10 -23t-10 -23t-22 -9z" unicode="¯"/>
<glyph glyph-name="degree" horiz-adv-x="458" unicode="°" d="M229 452q43 0 71 30t28 70v2q0 40 -28 70t-71 30t-71 -30t-28 -70v-2q0 -40 28 -70t71 -30zM229 400q-61 0 -109 46t-48 106v2q0 60 48 106t109 46t109 -46t48 -106v-2q0 -60 -48 -106t-109 -46z"/>
<glyph glyph-name="plusminus" horiz-adv-x="625" unicode="±" d="M107 0q-15 0 -25 10t-10 25q0 14 10 24t25 10h412q14 0 24 -10t10 -24q0 -15 -10 -25t-24 -10h-412zM276 200v164h-169q-15 0 -25 10t-10 25t10 25t25 10h169v164q0 15 10 26t27 11q15 0 25 -11t11 -26v-164h169q14 0 24 -10t11 -25q-1 -15 -11 -25t-24 -10h-169v-164 q-1 -15 -11 -26t-25 -11q-17 0 -27 11t-10 26z"/>
<glyph glyph-name="acute" d="M211 591q-19 0 -19 14q0 8 5 15l60 91q15 23 36 23q18 0 36 -10t18 -20q0 -9 -14 -23l-75 -71q-19 -19 -47 -19z" unicode="´"/>
<glyph glyph-name="paragraph" horiz-adv-x="510" unicode="¶" d="M338 35v229h-11q-123 0 -201 58t-78 159v2q0 101 73 159t191 58h66q16 0 28 -12t12 -28v-625q0 -17 -12 -29t-27 -11q-17 -1 -29 11t-12 29z"/>
<glyph glyph-name="periodcentered" horiz-adv-x="245" unicode="·" d="M75 311q0 19 14 33t34 14q19 0 33 -14t14 -33v-20q0 -19 -14 -33t-33 -14q-20 0 -34 14t-14 33v20z"/>
<glyph glyph-name="cedilla" d="M301 10l-63 -136q-12 -23 -31 -23q-15 1 -31 11t-17 21q0 7 6 18l75 109h61z" unicode="¸"/>
<glyph glyph-name="ordmasculine" horiz-adv-x="390" unicode="º" d="M196 455q40 0 66 29t26 70v2q0 42 -27 72t-67 29q-40 0 -66 -29t-26 -70v-2q0 -42 27 -72t67 -29zM70 289q-10 1 -17 7t-7 16t7 17t17 7h250q10 0 17 -7t7 -17t-7 -16t-17 -7h-250zM194 407q-62 0 -104 43t-42 104v2q0 62 42 106t106 43q62 0 104 -43t42 -104v-2 q0 -62 -42 -106t-106 -43z"/>
<glyph glyph-name="guillemotright" horiz-adv-x="550" unicode="»" d="M101 474q17 0 27 -15l134 -174q12 -15 12 -27t-12 -27l-132 -172q-14 -17 -30 -17q-12 0 -22 10t-10 23q0 12 9 23l118 159l-119 162q-9 14 -8 23q0 14 10 23t23 9zM323 474q16 0 28 -15l134 -174q11 -16 11 -27t-11 -27l-133 -172q-12 -17 -29 -17q-13 0 -23 10t-10 23 q0 12 9 23l119 159l-119 162q-9 11 -9 23t10 22t23 10z"/>
<glyph glyph-name="questiondown" horiz-adv-x="537" unicode="¿" d="M339 637q1 -19 -13 -33t-34 -14t-34 14t-14 33v21q0 20 14 34t34 13q20 1 34 -13t13 -34v-21zM289 507h3q10 1 18 -7t9 -20l10 -112q2 -14 -6 -24t-23 -11q-80 -5 -126 -41t-46 -98v-2q0 -54 40 -92t106 -38q92 0 165 78q13 11 27 11t24 -10t11 -25q0 -16 -11 -27 q-90 -98 -218 -98q-100 -1 -162 55t-62 143v2q0 89 58 139t150 64l7 86q1 12 8 20t18 7z"/>
<glyph glyph-name="Agrave" horiz-adv-x="784" unicode="À" d="M393 768q-28 0 -47 19l-75 71q-14 14 -14 23q0 10 18 20t36 10q21 0 36 -23l60 -91q5 -7 5 -15q0 -14 -19 -14zM229 257h322l-161 358zM51 31q0 11 5 21l284 621q16 35 50 35h4q35 0 49 -35l284 -620q5 -12 5 -20q0 -16 -11 -27t-27 -11q-26 0 -39 29l-73 161h-384 l-73 -163q-11 -27 -38 -27q-15 1 -25 11t-11 25z"/>
<glyph glyph-name="Aacute" horiz-adv-x="784" unicode="Á" d="M389 768q-19 0 -19 14q0 8 5 15l60 91q15 23 36 23q18 0 36 -10t18 -20q0 -9 -14 -23l-75 -71q-19 -19 -47 -19zM229 257h322l-161 358zM51 31q0 11 5 21l284 621q16 35 50 35h4q35 0 49 -35l284 -620q5 -12 5 -20q0 -16 -11 -27t-27 -11q-26 0 -39 29l-73 161h-384 l-73 -163q-11 -27 -38 -27q-15 1 -25 11t-11 25z"/>
<glyph glyph-name="Acircumflex" horiz-adv-x="784" unicode="Â" d="M390 839l-59 -52q-20 -19 -48 -19q-18 0 -18 14q0 5 7 17l70 86q19 22 40 22h18q21 0 40 -22l70 -86q7 -12 7 -17q0 -14 -19 -14q-29 0 -49 19zM229 257h322l-161 358zM51 31q0 11 5 21l284 621q16 35 50 35h4q35 0 49 -35l284 -620q5 -12 5 -20q0 -16 -11 -27t-27 -11 q-26 0 -39 29l-73 161h-384l-73 -163q-11 -27 -38 -27q-15 1 -25 11t-11 25z"/>
<glyph glyph-name="Atilde" horiz-adv-x="784" unicode="Ã" d="M284 777q-8 -17 -23 -17q-11 0 -19 7t-7 17q0 4 3 16q16 43 36 62t52 19q24 0 71 -20t63 -20q17 0 27 8t19 27q8 17 23 17q11 0 19 -7t7 -17q0 -1 -3 -16q-16 -43 -36 -62t-52 -19q-24 0 -71 20t-63 20q-17 0 -27 -8t-19 -27zM229 257h322l-161 358zM51 31q0 11 5 21 l284 621q16 35 50 35h4q35 0 49 -35l284 -620q5 -12 5 -20q0 -16 -11 -27t-27 -11q-26 0 -39 29l-73 161h-384l-73 -163q-11 -27 -38 -27q-15 1 -25 11t-11 25z"/>
<glyph glyph-name="Adieresis" horiz-adv-x="784" unicode="Ä" d="M302 872q20 0 34 -13t13 -32v-15q1 -19 -13 -32t-34 -13t-34 13t-13 32v15q-1 19 13 32t34 13zM480 872q20 0 34 -13t13 -32v-15q1 -19 -13 -32t-34 -13t-34 13t-13 32v15q-1 19 13 32t34 13zM229 257h322l-161 358zM51 31q0 11 5 21l284 621q16 35 50 35h4q35 0 49 -35 l284 -620q5 -12 5 -20q0 -16 -11 -27t-27 -11q-26 0 -39 29l-73 161h-384l-73 -163q-11 -27 -38 -27q-15 1 -25 11t-11 25z"/>
<glyph glyph-name="Aring" horiz-adv-x="790" unicode="Å" d="M232 257h322l-160 358zM395 705q25 0 43 18t19 43v2q-1 25 -19 43t-43 18t-43 -18t-19 -43v-2q1 -25 19 -43t43 -18zM444 680l288 -630q3 -9 3 -16q1 -15 -11 -27t-28 -12q-24 0 -38 29l-72 161h-385l-73 -163q-11 -27 -37 -27q-15 0 -26 11t-11 26q0 5 4 17l288 631 q-25 12 -40 36t-15 50v2q0 40 31 70t73 29q42 1 73 -29t31 -70v-2q0 -26 -15 -50t-40 -36z"/>
<glyph glyph-name="AE" horiz-adv-x="1045" unicode="Æ" d="M247 257h244v373h-23zM34 29q0 6 7 22l372 623q16 26 44 26h491q16 0 26 -10t10 -26t-10 -26t-26 -10h-377v-239h332q15 0 25 -11t11 -25q-1 -15 -11 -25t-25 -11h-332v-245h382q15 0 25 -10t11 -26q-1 -16 -11 -26t-25 -10h-422q-17 0 -29 12t-11 28v145h-286l-101 -169 q-10 -21 -34 -21q-14 0 -25 10t-11 24z"/>
<glyph glyph-name="Ccedilla" horiz-adv-x="738" unicode="Ç" d="M679 91q-108 -98 -244 -103l-53 -114q-12 -23 -31 -23q-15 1 -31 11t-17 21q0 7 6 18l62 90q-133 17 -218 117t-85 240v2q0 150 101 256t253 106q80 0 138 -23t112 -68q16 -14 16 -32q0 -15 -12 -27t-28 -12q-12 0 -26 9q-90 80 -201 80q-115 0 -193 -83t-78 -204v-2 q0 -122 78 -206t193 -83q115 0 208 85q11 11 25 11q14 1 26 -11t12 -27q0 -17 -13 -28z"/>
<glyph glyph-name="Egrave" horiz-adv-x="670" unicode="È" d="M355 758q-28 0 -47 19l-75 71q-14 14 -14 23q0 10 18 20t36 10q21 0 36 -23l60 -91q5 -7 5 -15q0 -14 -19 -14zM138 0q-16 0 -28 12t-11 28v620q-1 16 11 28t28 12h435q15 0 25 -10t11 -26q-1 -16 -11 -26t-25 -10h-395v-239h350q16 0 26 -11t10 -25q0 -15 -10 -25 t-26 -11h-350v-245h400q16 0 26 -10t10 -26t-10 -26t-26 -10h-440z"/>
<glyph glyph-name="Eacute" horiz-adv-x="670" unicode="É" d="M138 0q-16 0 -28 12t-11 28v620q-1 16 11 28t28 12h435q15 0 25 -10t11 -26q-1 -16 -11 -26t-25 -10h-395v-239h350q16 0 26 -11t10 -25q0 -15 -10 -25t-26 -11h-350v-245h400q16 0 26 -10t10 -26t-10 -26t-26 -10h-440zM351 758q-19 0 -19 14q0 8 5 15l60 91 q15 23 36 23q18 0 36 -10t18 -20q0 -9 -14 -23l-75 -71q-19 -19 -47 -19z"/>
<glyph glyph-name="Ecircumflex" horiz-adv-x="670" unicode="Ê" d="M138 0q-16 0 -28 12t-11 28v620q-1 16 11 28t28 12h435q15 0 25 -10t11 -26q-1 -16 -11 -26t-25 -10h-395v-239h350q16 0 26 -11t10 -25q0 -15 -10 -25t-26 -11h-350v-245h400q16 0 26 -10t10 -26t-10 -26t-26 -10h-440zM352 829l-59 -52q-20 -19 -48 -19q-18 0 -18 14 q0 5 7 17l70 86q19 22 40 22h18q21 0 40 -22l70 -86q7 -12 7 -17q0 -14 -19 -14q-29 0 -49 19z"/>
<glyph glyph-name="Edieresis" horiz-adv-x="670" unicode="Ë" d="M138 0q-16 0 -28 12t-11 28v620q-1 16 11 28t28 12h435q15 0 25 -10t11 -26q-1 -16 -11 -26t-25 -10h-395v-239h350q16 0 26 -11t10 -25q0 -15 -10 -25t-26 -11h-350v-245h400q16 0 26 -10t10 -26t-10 -26t-26 -10h-440zM264 862q20 0 34 -13t13 -32v-15q1 -19 -13 -32 t-34 -13t-34 13t-13 32v15q-1 19 13 32t34 13zM442 862q20 0 34 -13t13 -32v-15q1 -19 -13 -32t-34 -13t-34 13t-13 32v15q-1 19 13 32t34 13z"/>
<glyph glyph-name="Igrave" horiz-adv-x="291" unicode="Ì" d="M148 758q-28 0 -47 19l-75 71q-14 14 -14 23q0 10 18 20t36 10q21 0 36 -23l60 -91q5 -7 5 -15q0 -14 -19 -14zM106 35v630q0 16 12 28t27 12q17 1 29 -11t11 -29v-630q1 -17 -11 -29t-29 -11q-15 0 -27 12t-12 28z"/>
<glyph glyph-name="Iacute" horiz-adv-x="291" unicode="Í" d="M144 758q-19 0 -19 14q0 8 5 15l60 91q15 23 36 23q18 0 36 -10t18 -20q0 -9 -14 -23l-75 -71q-19 -19 -47 -19zM106 35v630q0 16 12 28t27 12q17 1 29 -11t11 -29v-630q1 -17 -11 -29t-29 -11q-15 0 -27 12t-12 28z"/>
<glyph glyph-name="Icircumflex" horiz-adv-x="291" unicode="Î" d="M145 829l-59 -52q-20 -19 -48 -19q-18 0 -18 14q0 5 7 17l70 86q19 22 40 22h18q21 0 40 -22l70 -86q7 -12 7 -17q0 -14 -19 -14q-29 0 -49 19zM106 35v630q0 16 12 28t27 12q17 1 29 -11t11 -29v-630q1 -17 -11 -29t-29 -11q-15 0 -27 12t-12 28z"/>
<glyph glyph-name="Idieresis" horiz-adv-x="291" unicode="Ï" d="M57 862q19 0 33 -13t14 -32v-15q0 -19 -14 -32t-33 -13t-33 13t-14 32v15q0 19 14 32t33 13zM235 862q19 0 33 -13t14 -32v-15q0 -19 -14 -32t-33 -13t-33 13t-14 32v15q0 19 14 32t33 13zM106 35v630q0 16 12 28t27 12q17 1 29 -11t11 -29v-630q1 -17 -11 -29t-29 -11 q-15 0 -27 12t-12 28z"/>
<glyph glyph-name="Eth" horiz-adv-x="812" unicode="Ð" d="M208 627v-239h179q14 0 25 -10t11 -26t-11 -26t-25 -10h-179v-243h164q130 0 210 78t80 197v2q0 119 -80 198t-210 79h-164zM85 388h44v272q-1 16 11 28t28 12h204q164 0 268 -100t104 -248v-2q0 -150 -104 -250t-268 -100h-204q-16 0 -28 12t-11 28v276h-44 q-15 0 -25 10t-11 26q1 16 11 26t25 10z"/>
<glyph glyph-name="Ntilde" horiz-adv-x="790" unicode="Ñ" d="M287 767q-9 -17 -23 -17q-10 0 -18 7t-8 17q0 4 3 16q15 43 35 62t53 19q24 0 71 -20t63 -20q17 0 27 8t19 27q9 17 23 17q10 0 18 -7t8 -17q0 -1 -3 -16q-15 -43 -35 -62t-53 -19q-24 0 -71 20t-63 20q-17 0 -27 -8t-19 -27zM99 34v630q-1 16 11 28t28 11h11 q22 0 40 -23l425 -542v528q0 16 12 28t27 11q16 1 27 -11t11 -28v-632q0 -16 -10 -26t-26 -11h-4q-20 0 -41 24l-434 555v-542q0 -16 -12 -28t-27 -11q-16 -1 -27 11t-11 28z"/>
<glyph glyph-name="Ograve" horiz-adv-x="850" unicode="Ò" d="M427 768q-28 0 -47 19l-75 71q-14 14 -14 23q0 10 18 20t36 10q21 0 36 -23l60 -91q5 -7 5 -15q0 -14 -19 -14zM426 61q118 0 196 83t78 204v2q0 121 -78 205t-198 84q-118 0 -196 -83t-78 -204v-2q0 -121 78 -205t198 -84zM424 -12q-156 0 -256 106t-100 254v2 q0 150 101 256t257 106t256 -106t100 -254v-2q0 -150 -101 -256t-257 -106z"/>
<glyph glyph-name="Oacute" horiz-adv-x="850" unicode="Ó" d="M426 61q118 0 196 83t78 204v2q0 121 -78 205t-198 84q-118 0 -196 -83t-78 -204v-2q0 -121 78 -205t198 -84zM424 -12q-156 0 -256 106t-100 254v2q0 150 101 256t257 106t256 -106t100 -254v-2q0 -150 -101 -256t-257 -106zM422 768q-19 0 -19 14q0 8 5 15l60 91 q15 23 36 23q18 0 36 -10t18 -20q0 -9 -14 -23l-75 -71q-19 -19 -47 -19z"/>
<glyph glyph-name="Ocircumflex" horiz-adv-x="850" unicode="Ô" d="M426 61q118 0 196 83t78 204v2q0 121 -78 205t-198 84q-118 0 -196 -83t-78 -204v-2q0 -121 78 -205t198 -84zM424 -12q-156 0 -256 106t-100 254v2q0 150 101 256t257 106t256 -106t100 -254v-2q0 -150 -101 -256t-257 -106zM424 839l-59 -52q-20 -19 -48 -19 q-18 0 -18 14q0 5 7 17l70 86q19 22 40 22h18q21 0 40 -22l70 -86q7 -12 7 -17q0 -14 -19 -14q-29 0 -49 19z"/>
<glyph glyph-name="Otilde" horiz-adv-x="850" unicode="Õ" d="M317 777q-9 -17 -23 -17q-10 0 -18 7t-8 17q0 4 3 16q15 43 35 62t53 19q24 0 71 -20t63 -20q17 0 27 8t19 27q9 17 23 17q10 0 18 -7t8 -17q0 -1 -3 -16q-15 -43 -35 -62t-53 -19q-24 0 -71 20t-63 20q-17 0 -27 -8t-19 -27zM426 61q118 0 196 83t78 204v2 q0 121 -78 205t-198 84q-118 0 -196 -83t-78 -204v-2q0 -121 78 -205t198 -84zM424 -12q-156 0 -256 106t-100 254v2q0 150 101 256t257 106t256 -106t100 -254v-2q0 -150 -101 -256t-257 -106z"/>
<glyph glyph-name="Odieresis" horiz-adv-x="850" unicode="Ö" d="M426 61q118 0 196 83t78 204v2q0 121 -78 205t-198 84q-118 0 -196 -83t-78 -204v-2q0 -121 78 -205t198 -84zM424 -12q-156 0 -256 106t-100 254v2q0 150 101 256t257 106t256 -106t100 -254v-2q0 -150 -101 -256t-257 -106zM336 872q20 0 34 -13t13 -32v-15 q1 -19 -13 -32t-34 -13t-34 13t-13 32v15q-1 19 13 32t34 13zM514 872q20 0 34 -13t13 -32v-15q1 -19 -13 -32t-34 -13t-34 13t-13 32v15q-1 19 13 32t34 13z"/>
<glyph glyph-name="multiply" horiz-adv-x="625" unicode="×" d="M515 505l-154 -152l154 -151q12 -12 12 -28q-1 -16 -11 -26t-25 -10q-16 0 -28 12l-151 154l-152 -155q-13 -11 -27 -11q-15 0 -25 10t-10 25q0 14 12 26l154 152l-154 151q-12 12 -12 28t11 26t26 10t27 -12l152 -154l152 155q11 11 26 11q14 0 24 -10t11 -25 q0 -14 -12 -26z"/>
<glyph glyph-name="Oslash" horiz-adv-x="850" unicode="Ø" d="M426 60q118 0 196 84t78 204v2q0 106 -61 184l-387 -412q73 -62 174 -62zM150 350q0 -106 61 -184l387 411q-76 63 -174 63q-118 0 -196 -84t-78 -204v-2zM424 -12q-129 0 -224 76l-60 -62q-12 -12 -25 -12t-21 8t-9 21q0 14 10 24l60 64q-87 99 -87 241v2q0 150 101 256 t257 106q129 0 224 -77l60 63q12 12 25 12t21 -8t9 -21q0 -14 -10 -24l-61 -65q88 -101 88 -240v-2q0 -150 -101 -256t-257 -106z"/>
<glyph glyph-name="Ugrave" horiz-adv-x="759" unicode="Ù" d="M381 758q-28 0 -47 19l-75 71q-14 14 -14 23q0 10 18 20t36 10q21 0 36 -23l60 -91q5 -7 5 -15q0 -14 -19 -14zM379 -11q-133 -1 -212 79t-79 225v372q0 16 12 28t27 12q17 1 29 -11t11 -29v-367q0 -112 57 -174t157 -62q99 0 155 59t56 172v372q0 17 12 29t28 11 q16 0 28 -12t11 -28v-366q0 -150 -79 -230t-213 -80z"/>
<glyph glyph-name="Uacute" horiz-adv-x="759" unicode="Ú" d="M379 -11q-133 -1 -212 79t-79 225v372q0 16 12 28t27 12q17 1 29 -11t11 -29v-367q0 -112 57 -174t157 -62q99 0 155 59t56 172v372q0 17 12 29t28 11q16 0 28 -12t11 -28v-366q0 -150 -79 -230t-213 -80zM377 758q-19 0 -19 14q0 8 5 15l60 91q15 23 36 23q18 0 36 -10 t18 -20q0 -9 -14 -23l-75 -71q-19 -19 -47 -19z"/>
<glyph glyph-name="Ucircumflex" horiz-adv-x="759" unicode="Û" d="M379 -11q-133 -1 -212 79t-79 225v372q0 16 12 28t27 12q17 1 29 -11t11 -29v-367q0 -112 57 -174t157 -62q99 0 155 59t56 172v372q0 17 12 29t28 11q16 0 28 -12t11 -28v-366q0 -150 -79 -230t-213 -80zM378 829l-59 -52q-20 -19 -48 -19q-18 0 -18 14q0 5 7 17l70 86 q19 22 40 22h18q21 0 40 -22l70 -86q7 -12 7 -17q0 -14 -19 -14q-29 0 -49 19z"/>
<glyph glyph-name="Udieresis" horiz-adv-x="759" unicode="Ü" d="M379 -11q-133 -1 -212 79t-79 225v372q0 16 12 28t27 12q17 1 29 -11t11 -29v-367q0 -112 57 -174t157 -62q99 0 155 59t56 172v372q0 17 12 29t28 11q16 0 28 -12t11 -28v-366q0 -150 -79 -230t-213 -80zM290 862q20 0 34 -13t13 -32v-15q1 -19 -13 -32t-34 -13t-34 13 t-13 32v15q-1 19 13 32t34 13zM468 862q20 0 34 -13t13 -32v-15q1 -19 -13 -32t-34 -13t-34 13t-13 32v15q-1 19 13 32t34 13z"/>
<glyph glyph-name="Yacute" horiz-adv-x="708" unicode="Ý" d="M352 758q-19 0 -19 14q0 8 5 15l60 91q15 23 36 23q18 0 36 -10t18 -20q0 -9 -14 -23l-75 -71q-19 -19 -47 -19zM314 35v240l-260 364q-9 14 -9 27q0 16 12 28t29 11q21 0 38 -24l231 -333l233 333q17 24 37 24q15 1 27 -11t12 -28q0 -11 -11 -29l-259 -360v-242 q0 -17 -12 -29t-28 -11q-16 -1 -28 11t-12 29z"/>
<glyph glyph-name="Thorn" horiz-adv-x="673" unicode="Þ" d="M178 198h173q87 0 139 43t53 112v2q-1 73 -51 113t-137 39h-177v-309zM99 35v630q-1 16 11 28t28 12q16 1 28 -11t12 -29v-85h183q119 0 191 -60t71 -162v-2q-1 -110 -79 -170t-196 -60h-170v-91q0 -17 -12 -29t-28 -11q-16 0 -28 12t-11 28z"/>
<glyph glyph-name="germandbls" horiz-adv-x="620" unicode="ß" d="M287 30q1 13 9 22t21 11q76 6 121 38t45 91v2q0 55 -45 88t-119 45q-32 7 -32 35q0 23 23 34q130 53 130 154v2q0 52 -36 84t-95 33q-65 1 -105 -45t-41 -122v-469q1 -16 -11 -27t-28 -11t-27 11t-11 27v468q0 106 62 171t165 65q93 1 149 -51t57 -129v-2q1 -65 -39 -111 t-100 -72q78 -18 130 -62t52 -116v-2q0 -92 -68 -142t-173 -52q-15 0 -25 9t-9 23z"/>
<glyph glyph-name="agrave" horiz-adv-x="579" unicode="à" d="M292 591q-28 0 -47 19l-75 71q-14 14 -14 23q0 10 18 20t36 10q21 0 36 -23l60 -91q5 -7 5 -15q0 -14 -19 -14zM255 50q73 0 123 40t50 100v50q-76 22 -152 22q-72 0 -112 -29t-39 -78v-2q-1 -47 37 -75t93 -28zM240 -11q-78 0 -136 43t-57 118v2q0 80 60 124t161 43 q81 0 159 -22v18q0 69 -40 105t-114 36q-69 0 -134 -29q-7 -3 -14 -3q-14 0 -24 10t-10 23q0 24 21 32q81 35 169 35q110 0 167 -57q53 -53 53 -151v-283q-1 -16 -11 -27t-26 -11q-16 1 -26 11t-11 25v47q-68 -89 -187 -89z"/>
<glyph glyph-name="aacute" horiz-adv-x="579" unicode="á" d="M287 591q-19 0 -19 14q0 8 5 15l60 91q15 23 36 23q18 0 36 -10t18 -20q0 -9 -14 -23l-75 -71q-19 -19 -47 -19zM255 50q73 0 123 40t50 100v50q-76 22 -152 22q-72 0 -112 -29t-39 -78v-2q-1 -47 37 -75t93 -28zM240 -11q-78 0 -136 43t-57 118v2q0 80 60 124t161 43 q81 0 159 -22v18q0 69 -40 105t-114 36q-69 0 -134 -29q-7 -3 -14 -3q-14 0 -24 10t-10 23q0 24 21 32q81 35 169 35q110 0 167 -57q53 -53 53 -151v-283q-1 -16 -11 -27t-26 -11q-16 1 -26 11t-11 25v47q-68 -89 -187 -89z"/>
<glyph glyph-name="acircumflex" horiz-adv-x="579" unicode="â" d="M288 662l-59 -52q-20 -19 -48 -19q-18 0 -18 14q0 5 7 17l70 86q19 22 40 22h18q21 0 40 -22l70 -86q7 -12 7 -17q0 -14 -19 -14q-29 0 -49 19zM255 50q73 0 123 40t50 100v50q-76 22 -152 22q-72 0 -112 -29t-39 -78v-2q-1 -47 37 -75t93 -28zM240 -11q-78 0 -136 43 t-57 118v2q0 80 60 124t161 43q81 0 159 -22v18q0 69 -40 105t-114 36q-69 0 -134 -29q-7 -3 -14 -3q-14 0 -24 10t-10 23q0 24 21 32q81 35 169 35q110 0 167 -57q53 -53 53 -151v-283q-1 -16 -11 -27t-26 -11q-16 1 -26 11t-11 25v47q-68 -89 -187 -89z"/>
<glyph glyph-name="atilde" horiz-adv-x="579" unicode="ã" d="M182 600q-8 -17 -23 -17q-11 0 -19 7t-7 17q0 4 3 16q16 43 36 62t52 19q24 0 71 -20t63 -20q17 0 27 8t19 27q8 17 23 17q11 0 19 -7t7 -17q0 -1 -3 -16q-16 -43 -36 -62t-52 -19q-24 0 -71 20t-63 20q-17 0 -27 -8t-19 -27zM255 50q73 0 123 40t50 100v50 q-76 22 -152 22q-72 0 -112 -29t-39 -78v-2q-1 -47 37 -75t93 -28zM240 -11q-78 0 -136 43t-57 118v2q0 80 60 124t161 43q81 0 159 -22v18q0 69 -40 105t-114 36q-69 0 -134 -29q-7 -3 -14 -3q-14 0 -24 10t-10 23q0 24 21 32q81 35 169 35q110 0 167 -57q53 -53 53 -151 v-283q-1 -16 -11 -27t-26 -11q-16 1 -26 11t-11 25v47q-68 -89 -187 -89z"/>
<glyph glyph-name="adieresis" horiz-adv-x="579" unicode="ä" d="M200 695q20 0 34 -13t13 -32v-15q1 -19 -13 -32t-34 -13t-34 13t-13 32v15q-1 19 13 32t34 13zM378 695q20 0 34 -13t13 -32v-15q1 -19 -13 -32t-34 -13t-34 13t-13 32v15q-1 19 13 32t34 13zM255 50q73 0 123 40t50 100v50q-76 22 -152 22q-72 0 -112 -29t-39 -78v-2 q-1 -47 37 -75t93 -28zM240 -11q-78 0 -136 43t-57 118v2q0 80 60 124t161 43q81 0 159 -22v18q0 69 -40 105t-114 36q-69 0 -134 -29q-7 -3 -14 -3q-14 0 -24 10t-10 23q0 24 21 32q81 35 169 35q110 0 167 -57q53 -53 53 -151v-283q-1 -16 -11 -27t-26 -11q-16 1 -26 11 t-11 25v47q-68 -89 -187 -89z"/>
<glyph glyph-name="aring" horiz-adv-x="579" unicode="å" d="M289 631q25 0 43 18t19 43v2q-1 25 -19 43t-43 18t-43 -18t-19 -43v-2q1 -25 19 -43t43 -18zM289 593q-42 -1 -73 29t-31 70v2q0 40 31 70t73 29q42 1 73 -29t31 -70v-2q0 -40 -31 -70t-73 -29zM255 50q73 0 123 40t50 100v50q-76 22 -152 22q-72 0 -112 -29t-39 -78v-2 q-1 -47 37 -75t93 -28zM240 -11q-78 0 -136 43t-57 118v2q0 80 60 124t161 43q81 0 159 -22v18q0 69 -40 105t-114 36q-69 0 -134 -29q-7 -3 -14 -3q-14 0 -24 10t-10 23q0 24 21 32q81 35 169 35q110 0 167 -57q53 -53 53 -151v-283q-1 -16 -11 -27t-26 -11q-16 1 -26 11 t-11 25v47q-68 -89 -187 -89z"/>
<glyph glyph-name="ae" horiz-adv-x="953" unicode="æ" d="M869 66q-83 -78 -196 -78q-62 0 -116 28t-89 76q-99 -103 -226 -103q-80 1 -138 43t-57 118v2q-1 80 59 124t158 43q75 0 153 -22v18q-1 69 -39 105t-110 36q-65 0 -129 -29q-7 -3 -14 -3q-14 0 -24 10t-10 23q0 24 21 32q78 35 164 35q151 0 190 -111q31 53 83 84 t115 31q110 0 175 -77t65 -185q0 -16 -11 -26t-26 -10h-373q6 -81 58 -128t123 -47q83 0 150 60q11 9 21 9q14 0 24 -10t10 -23q0 -14 -11 -25zM251 51q104 0 186 92q-18 45 -21 98q-80 21 -144 21q-70 0 -108 -29t-39 -78v-2q0 -47 36 -75t90 -27zM493 287h333 q-6 76 -48 126t-116 50q-68 1 -114 -49t-55 -127z"/>
<glyph glyph-name="ccedilla" horiz-adv-x="571" unicode="ç" d="M514 71q-78 -78 -180 -82l-53 -115q-11 -23 -31 -23q-16 1 -32 11t-16 21q0 7 6 18l63 92q-95 16 -156 91t-61 172v2q0 110 76 190t189 80q108 0 190 -75q12 -10 12 -27q0 -16 -11 -26t-26 -11q-14 0 -25 9q-67 62 -141 62q-78 0 -132 -58t-53 -142v-2q1 -84 55 -142 t135 -59q77 0 144 63q10 10 22 10q15 0 25 -10t10 -25q0 -14 -10 -24z"/>
<glyph glyph-name="egrave" horiz-adv-x="592" unicode="è" d="M303 591q-28 0 -47 19l-75 71q-14 14 -14 23q0 10 18 20t36 10q21 0 36 -23l60 -91q5 -7 5 -15q0 -14 -19 -14zM507 66q-81 -78 -195 -78q-110 0 -184 76t-74 193v2q0 113 71 191t177 78q110 0 175 -77t65 -185q0 -16 -10 -26t-26 -10h-374q8 -82 60 -128t122 -47 q84 0 149 60q11 9 22 9q14 0 24 -10t10 -23q0 -15 -12 -25zM132 287h333q-6 76 -49 126t-116 50q-68 0 -114 -50t-54 -126z"/>
<glyph glyph-name="eacute" horiz-adv-x="592" unicode="é" d="M507 66q-81 -78 -195 -78q-110 0 -184 76t-74 193v2q0 113 71 191t177 78q110 0 175 -77t65 -185q0 -16 -10 -26t-26 -10h-374q8 -82 60 -128t122 -47q84 0 149 60q11 9 22 9q14 0 24 -10t10 -23q0 -15 -12 -25zM132 287h333q-6 76 -49 126t-116 50q-68 0 -114 -50 t-54 -126zM299 591q-19 0 -19 14q0 8 5 15l60 91q15 23 36 23q18 0 36 -10t18 -20q0 -9 -14 -23l-75 -71q-19 -19 -47 -19z"/>
<glyph glyph-name="ecircumflex" horiz-adv-x="592" unicode="ê" d="M507 66q-81 -78 -195 -78q-110 0 -184 76t-74 193v2q0 113 71 191t177 78q110 0 175 -77t65 -185q0 -16 -10 -26t-26 -10h-374q8 -82 60 -128t122 -47q84 0 149 60q11 9 22 9q14 0 24 -10t10 -23q0 -15 -12 -25zM132 287h333q-6 76 -49 126t-116 50q-68 0 -114 -50 t-54 -126zM300 662l-59 -52q-20 -19 -48 -19q-18 0 -18 14q0 5 7 17l70 86q19 22 40 22h18q21 0 40 -22l70 -86q7 -12 7 -17q0 -14 -19 -14q-29 0 -49 19z"/>
<glyph glyph-name="edieresis" horiz-adv-x="592" unicode="ë" d="M507 66q-81 -78 -195 -78q-110 0 -184 76t-74 193v2q0 113 71 191t177 78q110 0 175 -77t65 -185q0 -16 -10 -26t-26 -10h-374q8 -82 60 -128t122 -47q84 0 149 60q11 9 22 9q14 0 24 -10t10 -23q0 -15 -12 -25zM132 287h333q-6 76 -49 126t-116 50q-68 0 -114 -50 t-54 -126zM212 695q20 0 34 -13t13 -32v-15q1 -19 -13 -32t-34 -13t-34 13t-13 32v15q-1 19 13 32t34 13zM390 695q20 0 34 -13t13 -32v-15q1 -19 -13 -32t-34 -13t-34 13t-13 32v15q-1 19 13 32t34 13z"/>
<glyph glyph-name="igrave" horiz-adv-x="263" unicode="ì" d="M134 591q-28 0 -47 19l-75 71q-14 14 -14 23q0 10 18 20t36 10q21 0 36 -23l60 -91q5 -7 5 -15q0 -14 -19 -14zM93 34v449q0 15 11 27t27 12q17 0 28 -11t11 -28v-449q0 -17 -11 -28t-27 -11q-16 -1 -28 11t-11 28z"/>
<glyph glyph-name="iacute" horiz-adv-x="263" unicode="í" d="M93 34v449q0 15 11 27t27 12q17 0 28 -11t11 -28v-449q0 -17 -11 -28t-27 -11q-16 -1 -28 11t-11 28zM130 591q-19 0 -19 14q0 8 5 15l60 91q15 23 36 23q18 0 36 -10t18 -20q0 -9 -14 -23l-75 -71q-19 -19 -47 -19z"/>
<glyph glyph-name="icircumflex" horiz-adv-x="263" unicode="î" d="M93 34v449q0 15 11 27t27 12q17 0 28 -11t11 -28v-449q0 -17 -11 -28t-27 -11q-16 -1 -28 11t-11 28zM131 662l-59 -52q-20 -19 -48 -19q-18 0 -18 14q0 5 7 17l70 86q19 22 40 22h18q21 0 40 -22l70 -86q7 -12 7 -17q0 -14 -19 -14q-29 0 -49 19z"/>
<glyph glyph-name="idieresis" horiz-adv-x="263" unicode="ï" d="M93 34v449q0 15 11 27t27 12q17 0 28 -11t11 -28v-449q0 -17 -11 -28t-27 -11q-16 -1 -28 11t-11 28zM43 695q19 0 33 -13t14 -32v-15q0 -19 -14 -32t-33 -13t-33 13t-14 32v15q0 19 14 32t33 13zM221 695q19 0 33 -13t14 -32v-15q0 -19 -14 -32t-33 -13t-33 13t-14 32 v15q0 19 14 32t33 13z"/>
<glyph glyph-name="eth" horiz-adv-x="633" unicode="ð" d="M499 244q-1 75 -55 128t-135 53t-129 -52t-48 -130q0 -75 53 -131t132 -56q80 0 131 55t51 133zM453 431l-131 183l-116 -56q-8 -3 -14 -3q-12 1 -20 9t-8 20q0 17 18 26l107 50l-10 15q-8 11 -8 24q1 15 11 25t26 11q19 0 32 -18l17 -25l87 41q6 3 14 3q12 0 20 -8 t8 -21q0 -17 -19 -26l-78 -36l101 -149q44 -65 66 -121t22 -123q0 -108 -74 -186t-192 -78q-110 0 -184 76t-74 182q0 104 70 172t167 68q84 0 162 -55z"/>
<glyph glyph-name="ntilde" horiz-adv-x="616" unicode="ñ" d="M204 600q-8 -17 -23 -17q-11 0 -19 7t-7 17q0 4 3 16q16 43 36 62t52 19q24 0 71 -20t63 -20q17 0 27 8t19 27q8 17 23 17q11 0 19 -7t7 -17q0 -1 -3 -16q-16 -43 -36 -62t-52 -19q-24 0 -71 20t-63 20q-17 0 -27 -8t-19 -27zM86 34v449q0 15 11 27t27 12t28 -11t11 -28 v-56q61 101 177 101q92 0 145 -56t53 -151v-287q0 -16 -11 -28t-27 -11q-16 -1 -28 11t-11 28v268q1 72 -37 114t-106 42q-67 0 -111 -45t-44 -117v-262q0 -17 -11 -28t-27 -11q-17 -1 -28 11t-11 28z"/>
<glyph glyph-name="ograve" horiz-adv-x="646" unicode="ò" d="M325 591q-28 0 -47 19l-75 71q-14 14 -14 23q0 10 18 20t36 10q21 0 36 -23l60 -91q5 -7 5 -15q0 -14 -19 -14zM324 57q82 0 136 58t54 141v2q0 84 -56 143t-136 59q-82 0 -136 -58t-53 -142v-2q0 -84 55 -142t136 -59zM322 -12q-116 0 -192 78t-76 190v2q0 110 78 190 t192 80q115 0 192 -78t77 -190v-2q0 -110 -78 -190t-193 -80z"/>
<glyph glyph-name="oacute" horiz-adv-x="646" unicode="ó" d="M324 57q82 0 136 58t54 141v2q0 84 -56 143t-136 59q-82 0 -136 -58t-53 -142v-2q0 -84 55 -142t136 -59zM322 -12q-116 0 -192 78t-76 190v2q0 110 78 190t192 80q115 0 192 -78t77 -190v-2q0 -110 -78 -190t-193 -80zM321 591q-19 0 -19 14q0 8 5 15l60 91q15 23 36 23 q18 0 36 -10t18 -20q0 -9 -14 -23l-75 -71q-19 -19 -47 -19z"/>
<glyph glyph-name="ocircumflex" horiz-adv-x="646" unicode="ô" d="M324 57q82 0 136 58t54 141v2q0 84 -56 143t-136 59q-82 0 -136 -58t-53 -142v-2q0 -84 55 -142t136 -59zM322 -12q-116 0 -192 78t-76 190v2q0 110 78 190t192 80q115 0 192 -78t77 -190v-2q0 -110 -78 -190t-193 -80zM322 662l-59 -52q-20 -19 -48 -19q-18 0 -18 14 q0 5 7 17l70 86q19 22 40 22h18q21 0 40 -22l70 -86q7 -12 7 -17q0 -14 -19 -14q-29 0 -49 19z"/>
<glyph glyph-name="otilde" horiz-adv-x="646" unicode="õ" d="M215 600q-9 -17 -23 -17q-10 0 -18 7t-8 17q0 4 3 16q15 43 35 62t53 19q24 0 71 -20t63 -20q17 0 27 8t19 27q9 17 23 17q10 0 18 -7t8 -17q0 -1 -3 -16q-15 -43 -35 -62t-53 -19q-24 0 -71 20t-63 20q-17 0 -27 -8t-19 -27zM324 57q82 0 136 58t54 141v2q0 84 -56 143 t-136 59q-82 0 -136 -58t-53 -142v-2q0 -84 55 -142t136 -59zM322 -12q-116 0 -192 78t-76 190v2q0 110 78 190t192 80q115 0 192 -78t77 -190v-2q0 -110 -78 -190t-193 -80z"/>
<glyph glyph-name="odieresis" horiz-adv-x="646" unicode="ö" d="M324 57q82 0 136 58t54 141v2q0 84 -56 143t-136 59q-82 0 -136 -58t-53 -142v-2q0 -84 55 -142t136 -59zM322 -12q-116 0 -192 78t-76 190v2q0 110 78 190t192 80q115 0 192 -78t77 -190v-2q0 -110 -78 -190t-193 -80zM234 695q20 0 34 -13t13 -32v-15q1 -19 -13 -32 t-34 -13t-34 13t-13 32v15q-1 19 13 32t34 13zM412 695q20 0 34 -13t13 -32v-15q1 -19 -13 -32t-34 -13t-34 13t-13 32v15q-1 19 13 32t34 13z"/>
<glyph glyph-name="divide" horiz-adv-x="625" unicode="÷" d="M313 210q21 0 36 -15t15 -35v-13q0 -20 -15 -35t-36 -15q-22 0 -37 15t-15 35v13q0 20 15 35t37 15zM313 607q21 0 36 -15t15 -35v-13q0 -20 -15 -35t-36 -15q-22 0 -37 15t-15 35v13q0 20 15 35t37 15zM527 317h-429q-14 1 -24 11t-11 24q1 14 11 24t24 11h429 q15 -1 25 -11t10 -24t-10 -24t-25 -11z"/>
<glyph glyph-name="oslash" horiz-adv-x="646" unicode="ø" d="M324 56q83 0 137 58t54 142v2q0 67 -38 121l-271 -281q52 -42 118 -42zM132 258q0 -69 37 -121l272 282q-52 42 -119 42q-82 -1 -136 -59t-54 -142v-2zM322 -12q-93 0 -166 55l-40 -41q-12 -12 -25 -12q-11 0 -19 8t-9 18q0 14 11 23l42 43q-62 73 -62 174v2 q0 110 78 190t192 80q92 0 165 -55l41 43q12 12 26 12q11 0 19 -8t8 -18q0 -13 -10 -23l-43 -45q63 -74 63 -174v-2q0 -110 -78 -190t-193 -80z"/>
<glyph glyph-name="ugrave" horiz-adv-x="616" unicode="ù" d="M305 591q-28 0 -47 19l-75 71q-14 14 -14 23q0 10 18 20t36 10q21 0 36 -23l60 -91q5 -7 5 -15q0 -14 -19 -14zM529 483v-449q0 -16 -11 -28t-27 -11q-16 -1 -27 11t-11 28v56q-63 -101 -177 -101q-92 1 -145 57t-53 150v287q0 17 11 28t27 11t28 -12t11 -27v-268 q-1 -73 37 -115t106 -41q67 0 111 45t44 117v262q0 17 11 28t27 11t27 -12t11 -27z"/>
<glyph glyph-name="uacute" horiz-adv-x="616" unicode="ú" d="M529 483v-449q0 -16 -11 -28t-27 -11q-16 -1 -27 11t-11 28v56q-63 -101 -177 -101q-92 1 -145 57t-53 150v287q0 17 11 28t27 11t28 -12t11 -27v-268q-1 -73 37 -115t106 -41q67 0 111 45t44 117v262q0 17 11 28t27 11t27 -12t11 -27zM301 591q-19 0 -19 14q0 8 5 15 l60 91q15 23 36 23q18 0 36 -10t18 -20q0 -9 -14 -23l-75 -71q-19 -19 -47 -19z"/>
<glyph glyph-name="ucircumflex" horiz-adv-x="616" unicode="û" d="M529 483v-449q0 -16 -11 -28t-27 -11q-16 -1 -27 11t-11 28v56q-63 -101 -177 -101q-92 1 -145 57t-53 150v287q0 17 11 28t27 11t28 -12t11 -27v-268q-1 -73 37 -115t106 -41q67 0 111 45t44 117v262q0 17 11 28t27 11t27 -12t11 -27zM302 662l-59 -52q-20 -19 -48 -19 q-18 0 -18 14q0 5 7 17l70 86q19 22 40 22h18q21 0 40 -22l70 -86q7 -12 7 -17q0 -14 -19 -14q-29 0 -49 19z"/>
<glyph glyph-name="udieresis" horiz-adv-x="616" unicode="ü" d="M529 483v-449q0 -16 -11 -28t-27 -11q-16 -1 -27 11t-11 28v56q-63 -101 -177 -101q-92 1 -145 57t-53 150v287q0 17 11 28t27 11t28 -12t11 -27v-268q-1 -73 37 -115t106 -41q67 0 111 45t44 117v262q0 17 11 28t27 11t27 -12t11 -27zM214 695q20 0 34 -13t13 -32v-15 q1 -19 -13 -32t-34 -13t-34 13t-13 32v15q-1 19 13 32t34 13zM392 695q20 0 34 -13t13 -32v-15q1 -19 -13 -32t-34 -13t-34 13t-13 32v15q-1 19 13 32t34 13z"/>
<glyph glyph-name="yacute" horiz-adv-x="587" unicode="ý" d="M294 591q-19 0 -19 14q0 8 5 15l60 91q15 23 36 23q18 0 36 -10t18 -20q0 -9 -14 -23l-75 -71q-19 -19 -47 -19zM161 -163q-42 0 -85 15q-24 10 -24 33q0 13 10 23t23 10q7 0 19 -4q27 -9 56 -9q34 -1 58 21t46 71l4 8l-216 458q-5 12 -5 21q-1 16 11 27t28 11 q27 0 39 -30l180 -406l160 407q11 29 37 29q16 0 27 -11t11 -27q0 -7 -4 -19l-202 -482q-34 -79 -74 -113t-99 -33z"/>
<glyph glyph-name="thorn" horiz-adv-x="664" unicode="þ" d="M347 58q78 0 130 54t52 145v2q0 89 -53 145t-129 55q-75 -1 -131 -57t-56 -142v-2q0 -88 56 -144t131 -56zM86 -126v822q0 16 11 28t27 11q16 1 28 -11t11 -28v-283q78 115 198 115q99 0 173 -73t74 -195v-2q0 -121 -74 -195t-173 -74q-122 0 -198 110v-225 q0 -17 -11 -28t-27 -11q-17 -1 -28 11t-11 28z"/>
<glyph glyph-name="OE" horiz-adv-x="1131" unicode="Œ" d="M440 73h138v554h-138q-130 0 -210 -78t-80 -197v-2q0 -119 80 -198t210 -79zM440 0q-164 0 -268 99t-104 249v2q0 150 104 250t268 100h594q16 0 26 -10t10 -26t-10 -26t-26 -10h-377v-239h332q15 0 25 -11t11 -25q-1 -15 -11 -25t-25 -11h-332v-245h382q15 0 25 -10 t11 -26q-1 -16 -11 -26t-25 -10h-599z"/>
<glyph glyph-name="oe" horiz-adv-x="1049" unicode="œ" d="M965 66q-83 -78 -195 -78q-72 0 -132 37t-91 102q-33 -63 -93 -101t-135 -38q-113 0 -189 79t-76 189v2q0 110 78 190t190 80q74 0 134 -38t92 -99q30 63 86 100t126 37q110 0 175 -77t65 -185q0 -16 -11 -26t-26 -10h-373q6 -81 58 -128t123 -47q83 0 150 60q11 9 21 9 q14 0 24 -10t10 -23q0 -14 -11 -25zM323 57q82 0 135 58t53 141v2q0 84 -55 143t-135 59q-82 0 -135 -58t-53 -142v-2q0 -84 55 -142t135 -59zM589 287h333q-6 76 -48 126t-116 50q-68 1 -114 -49t-55 -127z"/>
<glyph glyph-name="Scaron" horiz-adv-x="640" unicode="Š" d="M339 -10q-147 0 -265 94q-15 10 -15 30q0 16 11 28t27 11q15 0 24 -9q98 -83 221 -83q70 -1 113 33t43 86v2q0 51 -38 81t-144 52q-124 27 -180 73t-55 129v2q0 83 65 137t165 54q127 0 223 -69q17 -13 17 -32q0 -16 -11 -27t-27 -11q-13 0 -23 7q-84 61 -181 61 q-67 -1 -108 -33t-41 -80v-2q0 -52 40 -82t150 -54q120 -26 174 -72t54 -126v-2q0 -90 -67 -144t-172 -54zM327 836l59 53q20 18 48 18q18 0 18 -14q0 -5 -7 -16l-70 -86q-18 -23 -40 -23h-18q-22 0 -40 23l-70 86q-7 11 -7 16q0 14 19 14q29 0 49 -18z"/>
<glyph glyph-name="scaron" horiz-adv-x="498" unicode="š" d="M257 -10q-108 0 -199 65q-14 10 -14 28q0 13 10 23t24 10q12 0 19 -6q81 -55 164 -55q47 1 77 23t30 59v2q0 35 -32 54t-97 37q-39 11 -62 20q-23 10 -52 26t-43 41t-14 59v2q0 66 50 107t126 41q84 0 165 -44q19 -11 19 -32q0 -14 -10 -24t-24 -9q-9 0 -17 4 q-70 40 -135 40q-44 0 -72 -21t-28 -54v-2q0 -14 8 -26t18 -20t32 -17t34 -13q13 -4 41 -13q29 -9 49 -16t44 -19t38 -28q14 -14 25 -36q10 -22 10 -49v-2q0 -71 -52 -113t-132 -42zM253 659l59 53q20 18 48 18q18 0 18 -14q0 -6 -7 -16l-70 -86q-18 -23 -40 -23h-18 q-22 0 -40 23l-70 86q-7 10 -7 16q0 14 19 14q29 0 49 -18z"/>
<glyph glyph-name="Ydieresis" horiz-adv-x="708" unicode="Ÿ" d="M265 862q19 0 33 -13t14 -32v-15q0 -19 -14 -32t-33 -13t-33 13t-14 32v15q0 19 14 32t33 13zM443 862q19 0 33 -13t14 -32v-15q0 -19 -14 -32t-33 -13t-33 13t-14 32v15q0 19 14 32t33 13zM314 35v240l-260 364q-9 14 -9 27q0 16 12 28t29 11q21 0 38 -24l231 -333 l233 333q17 24 37 24q15 1 27 -11t12 -28q0 -11 -11 -29l-259 -360v-242q0 -17 -12 -29t-28 -11q-16 -1 -28 11t-12 29z"/>
<glyph glyph-name="circumflex" d="M249 662l-59 -52q-20 -19 -48 -19q-18 0 -18 14q0 5 7 17l70 86q19 22 40 22h18q21 0 40 -22l70 -86q7 -12 7 -17q0 -14 -19 -14q-29 0 -49 19z" unicode="ˆ"/>
<glyph glyph-name="tilde" d="M139 600q-9 -17 -23 -17q-10 0 -18 7t-8 17q0 4 3 16q15 43 35 62t53 19q24 0 71 -20t63 -20q17 0 27 8t19 27q9 17 23 17q10 0 18 -7t8 -17q0 -1 -3 -16q-15 -43 -35 -62t-53 -19q-24 0 -71 20t-63 20q-17 0 -27 -8t-19 -27z" unicode="˜"/>
<glyph glyph-name="enspace" unicode=" "/>
<glyph glyph-name="emspace" horiz-adv-x="1000" unicode=" "/>
<glyph glyph-name="thinspace" horiz-adv-x="133" unicode=" "/>
<glyph glyph-name="endash" horiz-adv-x="528" unicode="–" d="M98 262q-16 0 -27 12t-11 27t11 27t27 11h332q16 1 27 -11t11 -27t-11 -27t-27 -12h-332z"/>
<glyph glyph-name="emdash" horiz-adv-x="898" unicode="—" d="M98 262q-16 0 -27 12t-11 27t11 27t27 11h702q16 1 27 -11t11 -27t-11 -27t-27 -12h-702z"/>
<glyph glyph-name="quoteleft" horiz-adv-x="245" unicode="‘" d="M196 683q0 -13 -14 -18q-55 -25 -55 -75v-7q16 -5 27 -17t11 -31v-15q1 -20 -13 -34t-33 -13q-22 -1 -35 15t-13 40v19q0 85 35 120q16 15 36 26t32 11q22 0 22 -21z"/>
<glyph glyph-name="quotesinglbase" horiz-adv-x="245" unicode="‚" d="M45 -100q0 13 13 18q56 25 56 77v5q-39 9 -39 48v16q0 20 13 33t33 13q21 0 35 -15t14 -40v-19q0 -84 -36 -120q-16 -16 -36 -26t-32 -10q-21 0 -21 20z"/>
<glyph glyph-name="quotedblleft" horiz-adv-x="445" unicode="“" d="M196 683q0 -13 -14 -18q-55 -25 -55 -75v-7q16 -5 27 -17t11 -31v-15q1 -20 -13 -34t-33 -13q-22 -1 -35 15t-13 40v19q0 85 35 120q16 15 36 26t32 11q22 0 22 -21zM396 683q0 -13 -14 -18q-55 -25 -55 -75v-7q16 -5 27 -17t11 -31v-15q1 -20 -13 -34t-33 -13 q-22 -1 -35 15t-13 40v19q0 85 35 120q16 15 36 26t32 11q22 0 22 -21z"/>
<glyph glyph-name="quotedblright" horiz-adv-x="445" unicode="”" d="M250 494q0 14 13 19q56 25 56 77v5q-39 9 -39 47v16q0 20 14 34t32 13q22 1 36 -15t13 -40v-19q0 -84 -36 -120q-15 -17 -35 -27t-33 -10q-21 0 -21 20zM50 494q0 14 13 19q56 25 56 77v5q-39 9 -39 47v16q0 20 14 34t32 13q22 1 36 -15t13 -40v-19q0 -84 -36 -120 q-15 -17 -35 -27t-33 -10q-21 0 -21 20z"/>
<glyph glyph-name="dagger" horiz-adv-x="410" unicode="†" d="M178 262l6 258l-100 -7q-12 -1 -20 7t-8 19t8 19t20 8l99 -7l-7 114q0 13 8 23t21 9q13 1 21 -9t8 -23l-7 -114l99 7q12 0 20 -8t8 -19t-8 -19t-20 -7l-100 7l6 -258q0 -13 -8 -21t-19 -8t-19 8t-8 21z"/>
<glyph glyph-name="daggerdbl" horiz-adv-x="430" unicode="‡" d="M186 27l7 114l-99 -7q-12 0 -20 8t-8 19t8 19t20 7l100 -7l-6 170l6 170l-100 -7q-12 -1 -20 7t-8 19t8 19t20 8l99 -7l-7 114q0 13 8 23t21 9q13 1 21 -9t8 -23l-7 -114l99 7q12 0 20 -8t8 -19t-8 -19t-20 -7l-100 7l6 -170l-6 -170l100 7q12 1 20 -7t8 -19t-8 -19 t-20 -8l-99 7l7 -114q0 -13 -8 -23t-21 -9q-13 -1 -21 9t-8 23z"/>
<glyph glyph-name="ellipsis" horiz-adv-x="723" unicode="…" d="M75 63q0 19 13 33t33 14q21 0 34 -14t13 -33v-20q0 -21 -13 -35t-34 -13q-20 0 -33 14t-13 34v20zM315 63q0 19 13 33t34 14q20 0 33 -14t13 -33v-20q0 -20 -13 -34t-33 -14q-21 -1 -34 13t-13 35v20zM556 63q0 19 13 33t33 14t33 -14t13 -33v-20q0 -20 -13 -34t-33 -14 t-33 14t-13 34v20z"/>
<glyph glyph-name="perthousand" horiz-adv-x="1211" unicode="‰" d="M624 48q40 0 66 35t25 86v2q0 51 -27 87t-66 36q-40 0 -66 -35t-25 -86v-2q0 -51 27 -87t66 -36zM1001 48q39 0 65 35t26 86v2q0 51 -27 87t-66 36t-65 -35t-26 -86v-2q0 -51 27 -87t66 -36zM212 406q40 0 66 35t25 86v2q0 51 -27 87t-66 36q-40 0 -66 -35t-25 -86v-2 q0 -51 27 -87t66 -36zM622 -8q-69 0 -113 52t-44 125v2q0 73 45 126t114 53t113 -52t44 -125v-2q-1 -75 -45 -127t-114 -52zM999 -8q-69 0 -113 52t-44 125v2q0 73 45 126t114 53t113 -52t45 -125v-2q0 -73 -45 -126t-115 -53zM149 23q0 10 6 19l476 649q11 14 25 14 q12 -1 20 -9t9 -19q0 -10 -6 -19l-476 -649q-11 -14 -25 -14q-12 1 -20 9t-9 19zM210 350q-70 0 -114 52t-44 125v2q0 73 45 126t115 53q69 0 113 -52t44 -125v-2q0 -73 -45 -126t-114 -53z"/>
<glyph glyph-name="guilsinglleft" horiz-adv-x="328" unicode="‹" d="M227 42q-16 0 -28 16l-133 173q-12 15 -12 28q0 12 12 27l132 172q11 16 29 16q13 0 23 -10t10 -22q0 -11 -9 -24l-118 -158l119 -162q8 -11 8 -23q0 -13 -10 -23t-23 -10z"/>
<glyph glyph-name="guilsinglright" horiz-adv-x="328" unicode="›" d="M101 474q17 0 27 -15l134 -174q12 -15 12 -27t-12 -27l-132 -172q-14 -17 -30 -17q-12 0 -22 10t-10 23q0 12 9 23l118 159l-119 162q-9 14 -8 23q0 14 10 23t23 9z"/>
<glyph glyph-name="fraction" horiz-adv-x="429" unicode="⁄" d="M-48 -71q0 11 5 19l434 795q12 20 31 20q14 1 24 -9t9 -23q0 -11 -5 -19l-435 -795q-10 -20 -30 -20q-13 -1 -23 9t-10 23z"/>
<glyph glyph-name="Euro" horiz-adv-x="720" unicode="€" d="M663 137q0 -10 -8 -22q-92 -127 -225 -127q-104 0 -180 68t-103 181h-64q-13 0 -22 9t-9 22q0 12 9 22t22 10h54q-2 32 -2 49q0 31 3 59h-55q-13 0 -22 9t-9 22t9 22t22 9h67q28 108 102 175t173 67q136 0 226 -116q10 -12 10 -26q0 -15 -11 -26t-26 -11q-18 0 -30 14 q-36 48 -76 71t-96 23q-66 -1 -117 -47t-74 -124h230q13 0 23 -9t9 -22q1 -13 -9 -22t-23 -9h-244q-3 -28 -3 -57q0 -35 2 -51h245q13 0 23 -10t9 -22q1 -13 -9 -22t-23 -9h-233q23 -82 77 -130t128 -48q94 0 166 99q11 14 28 14q15 0 25 -10t11 -25z"/>
<glyph glyph-name="trademark" horiz-adv-x="690" unicode="™" d="M336 409v270q0 22 22 22h6q12 0 20 -11l108 -168l110 168q8 11 19 11h6q9 -1 15 -7t6 -15v-270q0 -9 -6 -15t-16 -7q-9 1 -15 7t-6 15v208l-93 -139q-8 -13 -20 -13t-20 13l-92 139v-208q0 -9 -6 -15t-16 -7q-10 1 -16 7t-6 15zM125 409v249h-83q-8 0 -14 6t-7 15 q1 9 7 15t14 6h209q9 0 15 -6t6 -15t-6 -15t-15 -6h-82v-249q-1 -9 -7 -15t-16 -7q-9 1 -15 7t-6 15z"/>
<glyph glyph-name="minus" horiz-adv-x="625" unicode="−" d="M525 315h-424q-16 1 -27 11t-11 26q0 15 11 26t27 11h424q15 0 26 -11t11 -26q0 -16 -11 -26t-26 -11z"/>
</font>
</defs>
</svg>
